%TF.GenerationSoftware,KiCad,Pcbnew,(5.1.10)-1*%
%TF.CreationDate,2021-09-08T15:10:06+01:00*%
%TF.ProjectId,Tiny-Pogo-AVR,54696e79-2d50-46f6-976f-2d4156522e6b,rev?*%
%TF.SameCoordinates,Original*%
%TF.FileFunction,Copper,L2,Bot*%
%TF.FilePolarity,Positive*%
%FSLAX46Y46*%
G04 Gerber Fmt 4.6, Leading zero omitted, Abs format (unit mm)*
G04 Created by KiCad (PCBNEW (5.1.10)-1) date 2021-09-08 15:10:06*
%MOMM*%
%LPD*%
G01*
G04 APERTURE LIST*
%TA.AperFunction,ComponentPad*%
%ADD10C,0.800000*%
%TD*%
%TA.AperFunction,ComponentPad*%
%ADD11C,6.400000*%
%TD*%
%TA.AperFunction,ComponentPad*%
%ADD12C,1.700000*%
%TD*%
%TA.AperFunction,ComponentPad*%
%ADD13O,1.700000X1.700000*%
%TD*%
%TA.AperFunction,ComponentPad*%
%ADD14R,1.700000X1.700000*%
%TD*%
%TA.AperFunction,SMDPad,CuDef*%
%ADD15R,1.500000X7.000000*%
%TD*%
%TA.AperFunction,ViaPad*%
%ADD16C,0.800000*%
%TD*%
%TA.AperFunction,Conductor*%
%ADD17C,0.400000*%
%TD*%
%TA.AperFunction,Conductor*%
%ADD18C,0.254000*%
%TD*%
%TA.AperFunction,Conductor*%
%ADD19C,0.100000*%
%TD*%
G04 APERTURE END LIST*
D10*
%TO.P,H2,1*%
%TO.N,GND*%
X150287056Y-61802944D03*
X148590000Y-61100000D03*
X146892944Y-61802944D03*
X146190000Y-63500000D03*
X146892944Y-65197056D03*
X148590000Y-65900000D03*
X150287056Y-65197056D03*
X150990000Y-63500000D03*
D11*
X148590000Y-63500000D03*
%TD*%
D10*
%TO.P,H1,1*%
%TO.N,GND*%
X129967056Y-61802944D03*
X128270000Y-61100000D03*
X126572944Y-61802944D03*
X125870000Y-63500000D03*
X126572944Y-65197056D03*
X128270000Y-65900000D03*
X129967056Y-65197056D03*
X130670000Y-63500000D03*
D11*
X128270000Y-63500000D03*
%TD*%
D12*
%TO.P,Y1,3*%
%TO.N,/XTAL2*%
X127254000Y-84756000D03*
%TO.P,Y1,2*%
%TO.N,GND*%
X127254000Y-82256000D03*
%TO.P,Y1,1*%
%TO.N,/XTAL1*%
X127254000Y-79756000D03*
%TD*%
D13*
%TO.P,J3,6*%
%TO.N,/RST*%
X135890000Y-95250000D03*
%TO.P,J3,5*%
%TO.N,GND*%
X135890000Y-92710000D03*
%TO.P,J3,4*%
%TO.N,/SCK*%
X138430000Y-95250000D03*
%TO.P,J3,3*%
%TO.N,/MOSI*%
X138430000Y-92710000D03*
%TO.P,J3,2*%
%TO.N,/MISO*%
X140970000Y-95250000D03*
D14*
%TO.P,J3,1*%
%TO.N,/TARGET_VCC*%
X140970000Y-92710000D03*
%TD*%
D15*
%TO.P,J1,5*%
%TO.N,GND*%
X135890000Y-101346000D03*
%TO.P,J1,3*%
%TO.N,/MOSI*%
X138430000Y-101346000D03*
%TO.P,J1,1*%
%TO.N,/TARGET_VCC*%
X140970000Y-101346000D03*
%TD*%
D16*
%TO.N,GND*%
X134112000Y-99568000D03*
X149352000Y-97917000D03*
X134874000Y-68453000D03*
X148463000Y-79248000D03*
X148717000Y-72136000D03*
X138811000Y-75184000D03*
X133604000Y-75184000D03*
X143891000Y-75311000D03*
X134493000Y-78994000D03*
X139065000Y-70866000D03*
X143510000Y-70866000D03*
X139192000Y-80518000D03*
X137668000Y-88138000D03*
%TO.N,+3V3*%
X139700000Y-72682000D03*
X139700000Y-77254000D03*
%TO.N,VCC*%
X138557000Y-71882000D03*
X142113000Y-72263000D03*
X132842000Y-87630000D03*
X130048000Y-78994000D03*
X141224000Y-79375000D03*
%TO.N,/SCK*%
X139192000Y-86868000D03*
%TO.N,/RST*%
X130556000Y-87249000D03*
X139192000Y-85598000D03*
%TO.N,/MOSI*%
X134493000Y-88900000D03*
X134493000Y-90932000D03*
%TO.N,/D-*%
X143002000Y-69723000D03*
X142621000Y-81788000D03*
%TO.N,/D+*%
X137668000Y-85598000D03*
X138430010Y-69723000D03*
%TD*%
D17*
%TO.N,GND*%
X135890000Y-93472000D02*
X135890000Y-92710000D01*
X137140001Y-94722001D02*
X135890000Y-93472000D01*
X137140001Y-96158999D02*
X137140001Y-94722001D01*
X135890000Y-97409000D02*
X137140001Y-96158999D01*
X135890000Y-101346000D02*
X135890000Y-97409000D01*
X135890000Y-89916000D02*
X137668000Y-88138000D01*
X135890000Y-92710000D02*
X135890000Y-89916000D01*
%TO.N,+3V3*%
X139700000Y-72682000D02*
X139700000Y-77254000D01*
%TO.N,VCC*%
X141732000Y-71882000D02*
X142113000Y-72263000D01*
X138557000Y-71882000D02*
X141732000Y-71882000D01*
X132842000Y-81788000D02*
X130048000Y-78994000D01*
X132842000Y-87630000D02*
X132842000Y-81788000D01*
X142113000Y-78486000D02*
X141224000Y-79375000D01*
X142113000Y-72263000D02*
X142113000Y-78486000D01*
%TO.N,/SCK*%
X139192000Y-89535000D02*
X139192000Y-86868000D01*
X137179999Y-91547001D02*
X139192000Y-89535000D01*
X137179999Y-93364999D02*
X137179999Y-91547001D01*
X138430000Y-94615000D02*
X137179999Y-93364999D01*
X138430000Y-95250000D02*
X138430000Y-94615000D01*
%TO.N,/RST*%
X130556000Y-87249000D02*
X131826000Y-88519000D01*
X131826000Y-88519000D02*
X133477000Y-88519000D01*
X133477000Y-92837000D02*
X133477000Y-88519000D01*
X135890000Y-95250000D02*
X133477000Y-92837000D01*
X133477000Y-88519000D02*
X135547002Y-86448998D01*
X135547002Y-86448998D02*
X138341002Y-86448998D01*
X138341002Y-86448998D02*
X139192000Y-85598000D01*
%TO.N,/MOSI*%
X138430000Y-101346000D02*
X138430000Y-97536000D01*
X139680001Y-93960001D02*
X138430000Y-92710000D01*
X139680001Y-96285999D02*
X139680001Y-93960001D01*
X138430000Y-97536000D02*
X139680001Y-96285999D01*
X134493000Y-88900000D02*
X134493000Y-90932000D01*
%TO.N,/D-*%
X143002000Y-69723000D02*
X142621000Y-70104000D01*
X142621000Y-70104000D02*
X142621000Y-71247000D01*
X142913001Y-81495999D02*
X142621000Y-81788000D01*
X142913001Y-71539001D02*
X142913001Y-81495999D01*
X142621000Y-71247000D02*
X142913001Y-71539001D01*
%TO.N,/D+*%
X137668000Y-85598000D02*
X137668000Y-70485010D01*
X137668000Y-70485010D02*
X138430010Y-69723000D01*
%TO.N,/TARGET_VCC*%
X140970000Y-101346000D02*
X140970000Y-97409000D01*
X142220001Y-93960001D02*
X140970000Y-92710000D01*
X142220001Y-96158999D02*
X142220001Y-93960001D01*
X140970000Y-97409000D02*
X142220001Y-96158999D01*
%TD*%
D18*
%TO.N,GND*%
X149302396Y-59656241D02*
X149990940Y-59850429D01*
X150632563Y-60166843D01*
X151205777Y-60594882D01*
X151691393Y-61120220D01*
X152073142Y-61725255D01*
X152338237Y-62389720D01*
X152480350Y-63104173D01*
X152502000Y-63517274D01*
X152502001Y-95990090D01*
X152428262Y-97100279D01*
X152212682Y-98169438D01*
X151857594Y-99200687D01*
X151369232Y-100175924D01*
X150756185Y-101077996D01*
X150029210Y-101891072D01*
X149201096Y-102600852D01*
X148286373Y-103194880D01*
X147301129Y-103662709D01*
X146262668Y-103996123D01*
X145185814Y-104189879D01*
X144253563Y-104242000D01*
X142358072Y-104242000D01*
X142358072Y-97846000D01*
X142345812Y-97721518D01*
X142309502Y-97601820D01*
X142250537Y-97491506D01*
X142171185Y-97394815D01*
X142167817Y-97392051D01*
X142781429Y-96778439D01*
X142813292Y-96752290D01*
X142917637Y-96625145D01*
X142995173Y-96480086D01*
X143042919Y-96322688D01*
X143055001Y-96200018D01*
X143055001Y-96200008D01*
X143059040Y-96159000D01*
X143055001Y-96117992D01*
X143055001Y-94001008D01*
X143059040Y-93960000D01*
X143055001Y-93918992D01*
X143055001Y-93918982D01*
X143042919Y-93796312D01*
X142995173Y-93638914D01*
X142917637Y-93493855D01*
X142813292Y-93366710D01*
X142781427Y-93340559D01*
X142458072Y-93017204D01*
X142458072Y-91860000D01*
X142445812Y-91735518D01*
X142409502Y-91615820D01*
X142350537Y-91505506D01*
X142271185Y-91408815D01*
X142174494Y-91329463D01*
X142064180Y-91270498D01*
X141944482Y-91234188D01*
X141820000Y-91221928D01*
X140120000Y-91221928D01*
X139995518Y-91234188D01*
X139875820Y-91270498D01*
X139765506Y-91329463D01*
X139668815Y-91408815D01*
X139589463Y-91505506D01*
X139530498Y-91615820D01*
X139508487Y-91688380D01*
X139376632Y-91556525D01*
X139133411Y-91394010D01*
X138863158Y-91282068D01*
X138665180Y-91242687D01*
X139753428Y-90154440D01*
X139785291Y-90128291D01*
X139889636Y-90001146D01*
X139967172Y-89856087D01*
X140014918Y-89698689D01*
X140027000Y-89576019D01*
X140027000Y-89576018D01*
X140031040Y-89535001D01*
X140027000Y-89493982D01*
X140027000Y-87481285D01*
X140109205Y-87358256D01*
X140187226Y-87169898D01*
X140227000Y-86969939D01*
X140227000Y-86766061D01*
X140187226Y-86566102D01*
X140109205Y-86377744D01*
X140012490Y-86233000D01*
X140109205Y-86088256D01*
X140187226Y-85899898D01*
X140227000Y-85699939D01*
X140227000Y-85496061D01*
X140187226Y-85296102D01*
X140109205Y-85107744D01*
X139995937Y-84938226D01*
X139851774Y-84794063D01*
X139682256Y-84680795D01*
X139493898Y-84602774D01*
X139293939Y-84563000D01*
X139090061Y-84563000D01*
X138890102Y-84602774D01*
X138701744Y-84680795D01*
X138532226Y-84794063D01*
X138503000Y-84823289D01*
X138503000Y-72917000D01*
X138658939Y-72917000D01*
X138690229Y-72910776D01*
X138704774Y-72983898D01*
X138782795Y-73172256D01*
X138865000Y-73295285D01*
X138865001Y-76640714D01*
X138782795Y-76763744D01*
X138704774Y-76952102D01*
X138665000Y-77152061D01*
X138665000Y-77355939D01*
X138704774Y-77555898D01*
X138782795Y-77744256D01*
X138896063Y-77913774D01*
X139040226Y-78057937D01*
X139209744Y-78171205D01*
X139398102Y-78249226D01*
X139598061Y-78289000D01*
X139801939Y-78289000D01*
X140001898Y-78249226D01*
X140190256Y-78171205D01*
X140359774Y-78057937D01*
X140503937Y-77913774D01*
X140617205Y-77744256D01*
X140695226Y-77555898D01*
X140735000Y-77355939D01*
X140735000Y-77152061D01*
X140695226Y-76952102D01*
X140617205Y-76763744D01*
X140535000Y-76640715D01*
X140535000Y-73295285D01*
X140617205Y-73172256D01*
X140695226Y-72983898D01*
X140735000Y-72783939D01*
X140735000Y-72717000D01*
X141180777Y-72717000D01*
X141195795Y-72753256D01*
X141278000Y-72876285D01*
X141278001Y-78140131D01*
X141067224Y-78350908D01*
X140922102Y-78379774D01*
X140733744Y-78457795D01*
X140564226Y-78571063D01*
X140420063Y-78715226D01*
X140306795Y-78884744D01*
X140228774Y-79073102D01*
X140189000Y-79273061D01*
X140189000Y-79476939D01*
X140228774Y-79676898D01*
X140306795Y-79865256D01*
X140420063Y-80034774D01*
X140564226Y-80178937D01*
X140733744Y-80292205D01*
X140922102Y-80370226D01*
X141122061Y-80410000D01*
X141325939Y-80410000D01*
X141525898Y-80370226D01*
X141714256Y-80292205D01*
X141883774Y-80178937D01*
X142027937Y-80034774D01*
X142078002Y-79959846D01*
X142078002Y-80906036D01*
X141961226Y-80984063D01*
X141817063Y-81128226D01*
X141703795Y-81297744D01*
X141625774Y-81486102D01*
X141586000Y-81686061D01*
X141586000Y-81889939D01*
X141625774Y-82089898D01*
X141703795Y-82278256D01*
X141817063Y-82447774D01*
X141961226Y-82591937D01*
X142130744Y-82705205D01*
X142319102Y-82783226D01*
X142519061Y-82823000D01*
X142722939Y-82823000D01*
X142922898Y-82783226D01*
X143111256Y-82705205D01*
X143280774Y-82591937D01*
X143424937Y-82447774D01*
X143538205Y-82278256D01*
X143616226Y-82089898D01*
X143656000Y-81889939D01*
X143656000Y-81877277D01*
X143688173Y-81817086D01*
X143735919Y-81659688D01*
X143748001Y-81537018D01*
X143748001Y-81537017D01*
X143752041Y-81495999D01*
X143748001Y-81454981D01*
X143748001Y-71580019D01*
X143752041Y-71539001D01*
X143735919Y-71375313D01*
X143715478Y-71307928D01*
X143688173Y-71217914D01*
X143610637Y-71072855D01*
X143506292Y-70945710D01*
X143474428Y-70919560D01*
X143456000Y-70901132D01*
X143456000Y-70655223D01*
X143492256Y-70640205D01*
X143661774Y-70526937D01*
X143805937Y-70382774D01*
X143919205Y-70213256D01*
X143997226Y-70024898D01*
X144037000Y-69824939D01*
X144037000Y-69621061D01*
X143997226Y-69421102D01*
X143919205Y-69232744D01*
X143805937Y-69063226D01*
X143661774Y-68919063D01*
X143492256Y-68805795D01*
X143303898Y-68727774D01*
X143103939Y-68688000D01*
X142900061Y-68688000D01*
X142700102Y-68727774D01*
X142511744Y-68805795D01*
X142342226Y-68919063D01*
X142198063Y-69063226D01*
X142084795Y-69232744D01*
X142006774Y-69421102D01*
X141976551Y-69573046D01*
X141923365Y-69637854D01*
X141923364Y-69637855D01*
X141845828Y-69782914D01*
X141798082Y-69940312D01*
X141781960Y-70104000D01*
X141786000Y-70145019D01*
X141786001Y-71048279D01*
X141773019Y-71047000D01*
X141773018Y-71047000D01*
X141732000Y-71042960D01*
X141690982Y-71047000D01*
X139170285Y-71047000D01*
X139047256Y-70964795D01*
X138858898Y-70886774D01*
X138658939Y-70847000D01*
X138503000Y-70847000D01*
X138503000Y-70830878D01*
X138586785Y-70747092D01*
X138731908Y-70718226D01*
X138920266Y-70640205D01*
X139089784Y-70526937D01*
X139233947Y-70382774D01*
X139347215Y-70213256D01*
X139425236Y-70024898D01*
X139465010Y-69824939D01*
X139465010Y-69621061D01*
X139425236Y-69421102D01*
X139347215Y-69232744D01*
X139233947Y-69063226D01*
X139089784Y-68919063D01*
X138920266Y-68805795D01*
X138731908Y-68727774D01*
X138531949Y-68688000D01*
X138328071Y-68688000D01*
X138128112Y-68727774D01*
X137939754Y-68805795D01*
X137770236Y-68919063D01*
X137626073Y-69063226D01*
X137512805Y-69232744D01*
X137434784Y-69421102D01*
X137405918Y-69566225D01*
X137106574Y-69865569D01*
X137074710Y-69891719D01*
X137048562Y-69923581D01*
X136970364Y-70018865D01*
X136892828Y-70163924D01*
X136845082Y-70321322D01*
X136828960Y-70485010D01*
X136833001Y-70526039D01*
X136833000Y-84984715D01*
X136750795Y-85107744D01*
X136672774Y-85296102D01*
X136633000Y-85496061D01*
X136633000Y-85613998D01*
X135588020Y-85613998D01*
X135547002Y-85609958D01*
X135505983Y-85613998D01*
X135383313Y-85626080D01*
X135225915Y-85673826D01*
X135080856Y-85751362D01*
X134953711Y-85855707D01*
X134927565Y-85887566D01*
X133725633Y-87089499D01*
X133677000Y-87016715D01*
X133677000Y-81829018D01*
X133681040Y-81788000D01*
X133664918Y-81624312D01*
X133664294Y-81622253D01*
X133617172Y-81466913D01*
X133539636Y-81321854D01*
X133461439Y-81226570D01*
X133461437Y-81226568D01*
X133435291Y-81194709D01*
X133403432Y-81168563D01*
X131072093Y-78837225D01*
X131043226Y-78692102D01*
X130965205Y-78503744D01*
X130851937Y-78334226D01*
X130707774Y-78190063D01*
X130538256Y-78076795D01*
X130349898Y-77998774D01*
X130149939Y-77959000D01*
X129946061Y-77959000D01*
X129746102Y-77998774D01*
X129557744Y-78076795D01*
X129388226Y-78190063D01*
X129244063Y-78334226D01*
X129130795Y-78503744D01*
X129052774Y-78692102D01*
X129013000Y-78892061D01*
X129013000Y-79095939D01*
X129052774Y-79295898D01*
X129130795Y-79484256D01*
X129244063Y-79653774D01*
X129388226Y-79797937D01*
X129557744Y-79911205D01*
X129746102Y-79989226D01*
X129891225Y-80018093D01*
X132007001Y-82133870D01*
X132007000Y-87016715D01*
X131924795Y-87139744D01*
X131846774Y-87328102D01*
X131841663Y-87353796D01*
X131580093Y-87092225D01*
X131551226Y-86947102D01*
X131473205Y-86758744D01*
X131359937Y-86589226D01*
X131215774Y-86445063D01*
X131046256Y-86331795D01*
X130857898Y-86253774D01*
X130657939Y-86214000D01*
X130454061Y-86214000D01*
X130254102Y-86253774D01*
X130065744Y-86331795D01*
X129896226Y-86445063D01*
X129752063Y-86589226D01*
X129638795Y-86758744D01*
X129560774Y-86947102D01*
X129521000Y-87147061D01*
X129521000Y-87350939D01*
X129560774Y-87550898D01*
X129638795Y-87739256D01*
X129752063Y-87908774D01*
X129896226Y-88052937D01*
X130065744Y-88166205D01*
X130254102Y-88244226D01*
X130399225Y-88273093D01*
X131206558Y-89080426D01*
X131232709Y-89112291D01*
X131359854Y-89216636D01*
X131504913Y-89294172D01*
X131662311Y-89341918D01*
X131784981Y-89354000D01*
X131784983Y-89354000D01*
X131825999Y-89358040D01*
X131867015Y-89354000D01*
X132642001Y-89354000D01*
X132642000Y-92795981D01*
X132637960Y-92837000D01*
X132642000Y-92878018D01*
X132654082Y-93000688D01*
X132701828Y-93158086D01*
X132779364Y-93303145D01*
X132883709Y-93430291D01*
X132915579Y-93456446D01*
X134431193Y-94972061D01*
X134405000Y-95103740D01*
X134405000Y-95396260D01*
X134462068Y-95683158D01*
X134574010Y-95953411D01*
X134736525Y-96196632D01*
X134943368Y-96403475D01*
X135186589Y-96565990D01*
X135456842Y-96677932D01*
X135743740Y-96735000D01*
X136036260Y-96735000D01*
X136323158Y-96677932D01*
X136593411Y-96565990D01*
X136836632Y-96403475D01*
X137043475Y-96196632D01*
X137160000Y-96022240D01*
X137276525Y-96196632D01*
X137483368Y-96403475D01*
X137726589Y-96565990D01*
X137996842Y-96677932D01*
X138088891Y-96696242D01*
X137868574Y-96916559D01*
X137836710Y-96942709D01*
X137810562Y-96974571D01*
X137732364Y-97069855D01*
X137657371Y-97210157D01*
X137555518Y-97220188D01*
X137435820Y-97256498D01*
X137325506Y-97315463D01*
X137228815Y-97394815D01*
X137160000Y-97478667D01*
X137091185Y-97394815D01*
X136994494Y-97315463D01*
X136884180Y-97256498D01*
X136764482Y-97220188D01*
X136640000Y-97207928D01*
X136175750Y-97211000D01*
X136017000Y-97369750D01*
X136017000Y-101219000D01*
X136037000Y-101219000D01*
X136037000Y-101473000D01*
X136017000Y-101473000D01*
X136017000Y-101493000D01*
X135763000Y-101493000D01*
X135763000Y-101473000D01*
X134663750Y-101473000D01*
X134505000Y-101631750D01*
X134502505Y-104242000D01*
X132609895Y-104242000D01*
X131499721Y-104168262D01*
X130430562Y-103952682D01*
X129399313Y-103597594D01*
X128424076Y-103109232D01*
X127522004Y-102496185D01*
X126708928Y-101769210D01*
X125999148Y-100941096D01*
X125405120Y-100026373D01*
X124937291Y-99041129D01*
X124603877Y-98002668D01*
X124575689Y-97846000D01*
X134501928Y-97846000D01*
X134505000Y-101060250D01*
X134663750Y-101219000D01*
X135763000Y-101219000D01*
X135763000Y-97369750D01*
X135604250Y-97211000D01*
X135140000Y-97207928D01*
X135015518Y-97220188D01*
X134895820Y-97256498D01*
X134785506Y-97315463D01*
X134688815Y-97394815D01*
X134609463Y-97491506D01*
X134550498Y-97601820D01*
X134514188Y-97721518D01*
X134501928Y-97846000D01*
X124575689Y-97846000D01*
X124410121Y-96925814D01*
X124358000Y-95993563D01*
X124358000Y-84609740D01*
X125769000Y-84609740D01*
X125769000Y-84902260D01*
X125826068Y-85189158D01*
X125938010Y-85459411D01*
X126100525Y-85702632D01*
X126307368Y-85909475D01*
X126550589Y-86071990D01*
X126820842Y-86183932D01*
X127107740Y-86241000D01*
X127400260Y-86241000D01*
X127687158Y-86183932D01*
X127957411Y-86071990D01*
X128200632Y-85909475D01*
X128407475Y-85702632D01*
X128569990Y-85459411D01*
X128681932Y-85189158D01*
X128739000Y-84902260D01*
X128739000Y-84609740D01*
X128681932Y-84322842D01*
X128569990Y-84052589D01*
X128407475Y-83809368D01*
X128200632Y-83602525D01*
X128037590Y-83493584D01*
X128102792Y-83284397D01*
X127254000Y-82435605D01*
X126405208Y-83284397D01*
X126470410Y-83493584D01*
X126307368Y-83602525D01*
X126100525Y-83809368D01*
X125938010Y-84052589D01*
X125826068Y-84322842D01*
X125769000Y-84609740D01*
X124358000Y-84609740D01*
X124358000Y-82324531D01*
X125763389Y-82324531D01*
X125805401Y-82614019D01*
X125903081Y-82889747D01*
X125976528Y-83027157D01*
X126225603Y-83104792D01*
X127074395Y-82256000D01*
X127433605Y-82256000D01*
X128282397Y-83104792D01*
X128531472Y-83027157D01*
X128657371Y-82763117D01*
X128729339Y-82479589D01*
X128744611Y-82187469D01*
X128702599Y-81897981D01*
X128604919Y-81622253D01*
X128531472Y-81484843D01*
X128282397Y-81407208D01*
X127433605Y-82256000D01*
X127074395Y-82256000D01*
X126225603Y-81407208D01*
X125976528Y-81484843D01*
X125850629Y-81748883D01*
X125778661Y-82032411D01*
X125763389Y-82324531D01*
X124358000Y-82324531D01*
X124358000Y-79609740D01*
X125769000Y-79609740D01*
X125769000Y-79902260D01*
X125826068Y-80189158D01*
X125938010Y-80459411D01*
X126100525Y-80702632D01*
X126307368Y-80909475D01*
X126470410Y-81018416D01*
X126405208Y-81227603D01*
X127254000Y-82076395D01*
X128102792Y-81227603D01*
X128037590Y-81018416D01*
X128200632Y-80909475D01*
X128407475Y-80702632D01*
X128569990Y-80459411D01*
X128681932Y-80189158D01*
X128739000Y-79902260D01*
X128739000Y-79609740D01*
X128681932Y-79322842D01*
X128569990Y-79052589D01*
X128407475Y-78809368D01*
X128200632Y-78602525D01*
X127957411Y-78440010D01*
X127687158Y-78328068D01*
X127400260Y-78271000D01*
X127107740Y-78271000D01*
X126820842Y-78328068D01*
X126550589Y-78440010D01*
X126307368Y-78602525D01*
X126100525Y-78809368D01*
X125938010Y-79052589D01*
X125826068Y-79322842D01*
X125769000Y-79609740D01*
X124358000Y-79609740D01*
X124358000Y-66200881D01*
X125748724Y-66200881D01*
X126108912Y-66690548D01*
X126772882Y-67050849D01*
X127494385Y-67274694D01*
X128245695Y-67353480D01*
X128997938Y-67284178D01*
X129722208Y-67069452D01*
X130390670Y-66717555D01*
X130431088Y-66690548D01*
X130791276Y-66200881D01*
X146068724Y-66200881D01*
X146428912Y-66690548D01*
X147092882Y-67050849D01*
X147814385Y-67274694D01*
X148565695Y-67353480D01*
X149317938Y-67284178D01*
X150042208Y-67069452D01*
X150710670Y-66717555D01*
X150751088Y-66690548D01*
X151111276Y-66200881D01*
X148590000Y-63679605D01*
X146068724Y-66200881D01*
X130791276Y-66200881D01*
X128270000Y-63679605D01*
X125748724Y-66200881D01*
X124358000Y-66200881D01*
X124358000Y-63530256D01*
X124363013Y-63475695D01*
X124416520Y-63475695D01*
X124485822Y-64227938D01*
X124700548Y-64952208D01*
X125052445Y-65620670D01*
X125079452Y-65661088D01*
X125569119Y-66021276D01*
X128090395Y-63500000D01*
X128449605Y-63500000D01*
X130970881Y-66021276D01*
X131460548Y-65661088D01*
X131820849Y-64997118D01*
X132044694Y-64275615D01*
X132123480Y-63524305D01*
X132111396Y-63393137D01*
X135145000Y-63393137D01*
X135145000Y-63606863D01*
X135186696Y-63816483D01*
X135268485Y-64013940D01*
X135387225Y-64191647D01*
X135538353Y-64342775D01*
X135716060Y-64461515D01*
X135913517Y-64543304D01*
X136123137Y-64585000D01*
X136336863Y-64585000D01*
X136546483Y-64543304D01*
X136743940Y-64461515D01*
X136921647Y-64342775D01*
X137072775Y-64191647D01*
X137191515Y-64013940D01*
X137273304Y-63816483D01*
X137315000Y-63606863D01*
X137315000Y-63393137D01*
X139545000Y-63393137D01*
X139545000Y-63606863D01*
X139586696Y-63816483D01*
X139668485Y-64013940D01*
X139787225Y-64191647D01*
X139938353Y-64342775D01*
X140116060Y-64461515D01*
X140313517Y-64543304D01*
X140523137Y-64585000D01*
X140736863Y-64585000D01*
X140946483Y-64543304D01*
X141143940Y-64461515D01*
X141321647Y-64342775D01*
X141472775Y-64191647D01*
X141591515Y-64013940D01*
X141673304Y-63816483D01*
X141715000Y-63606863D01*
X141715000Y-63475695D01*
X144736520Y-63475695D01*
X144805822Y-64227938D01*
X145020548Y-64952208D01*
X145372445Y-65620670D01*
X145399452Y-65661088D01*
X145889119Y-66021276D01*
X148410395Y-63500000D01*
X148769605Y-63500000D01*
X151290881Y-66021276D01*
X151780548Y-65661088D01*
X152140849Y-64997118D01*
X152364694Y-64275615D01*
X152443480Y-63524305D01*
X152374178Y-62772062D01*
X152159452Y-62047792D01*
X151807555Y-61379330D01*
X151780548Y-61338912D01*
X151290881Y-60978724D01*
X148769605Y-63500000D01*
X148410395Y-63500000D01*
X145889119Y-60978724D01*
X145399452Y-61338912D01*
X145039151Y-62002882D01*
X144815306Y-62724385D01*
X144736520Y-63475695D01*
X141715000Y-63475695D01*
X141715000Y-63393137D01*
X141673304Y-63183517D01*
X141591515Y-62986060D01*
X141472775Y-62808353D01*
X141321647Y-62657225D01*
X141143940Y-62538485D01*
X140946483Y-62456696D01*
X140736863Y-62415000D01*
X140523137Y-62415000D01*
X140313517Y-62456696D01*
X140116060Y-62538485D01*
X139938353Y-62657225D01*
X139787225Y-62808353D01*
X139668485Y-62986060D01*
X139586696Y-63183517D01*
X139545000Y-63393137D01*
X137315000Y-63393137D01*
X137273304Y-63183517D01*
X137191515Y-62986060D01*
X137072775Y-62808353D01*
X136921647Y-62657225D01*
X136743940Y-62538485D01*
X136546483Y-62456696D01*
X136336863Y-62415000D01*
X136123137Y-62415000D01*
X135913517Y-62456696D01*
X135716060Y-62538485D01*
X135538353Y-62657225D01*
X135387225Y-62808353D01*
X135268485Y-62986060D01*
X135186696Y-63183517D01*
X135145000Y-63393137D01*
X132111396Y-63393137D01*
X132054178Y-62772062D01*
X131839452Y-62047792D01*
X131487555Y-61379330D01*
X131460548Y-61338912D01*
X130970881Y-60978724D01*
X128449605Y-63500000D01*
X128090395Y-63500000D01*
X125569119Y-60978724D01*
X125079452Y-61338912D01*
X124719151Y-62002882D01*
X124495306Y-62724385D01*
X124416520Y-63475695D01*
X124363013Y-63475695D01*
X124426241Y-62787604D01*
X124620429Y-62099060D01*
X124936843Y-61457437D01*
X125364882Y-60884223D01*
X125456947Y-60799119D01*
X125748724Y-60799119D01*
X128270000Y-63320395D01*
X130791276Y-60799119D01*
X146068724Y-60799119D01*
X148590000Y-63320395D01*
X151111276Y-60799119D01*
X150751088Y-60309452D01*
X150087118Y-59949151D01*
X149365615Y-59725306D01*
X148614305Y-59646520D01*
X147862062Y-59715822D01*
X147137792Y-59930548D01*
X146469330Y-60282445D01*
X146428912Y-60309452D01*
X146068724Y-60799119D01*
X130791276Y-60799119D01*
X130431088Y-60309452D01*
X129767118Y-59949151D01*
X129045615Y-59725306D01*
X128294305Y-59646520D01*
X127542062Y-59715822D01*
X126817792Y-59930548D01*
X126149330Y-60282445D01*
X126108912Y-60309452D01*
X125748724Y-60799119D01*
X125456947Y-60799119D01*
X125890220Y-60398607D01*
X126495255Y-60016858D01*
X127159720Y-59751763D01*
X127874173Y-59609650D01*
X128287274Y-59588000D01*
X148559744Y-59588000D01*
X149302396Y-59656241D01*
%TA.AperFunction,Conductor*%
D19*
G36*
X149302396Y-59656241D02*
G01*
X149990940Y-59850429D01*
X150632563Y-60166843D01*
X151205777Y-60594882D01*
X151691393Y-61120220D01*
X152073142Y-61725255D01*
X152338237Y-62389720D01*
X152480350Y-63104173D01*
X152502000Y-63517274D01*
X152502001Y-95990090D01*
X152428262Y-97100279D01*
X152212682Y-98169438D01*
X151857594Y-99200687D01*
X151369232Y-100175924D01*
X150756185Y-101077996D01*
X150029210Y-101891072D01*
X149201096Y-102600852D01*
X148286373Y-103194880D01*
X147301129Y-103662709D01*
X146262668Y-103996123D01*
X145185814Y-104189879D01*
X144253563Y-104242000D01*
X142358072Y-104242000D01*
X142358072Y-97846000D01*
X142345812Y-97721518D01*
X142309502Y-97601820D01*
X142250537Y-97491506D01*
X142171185Y-97394815D01*
X142167817Y-97392051D01*
X142781429Y-96778439D01*
X142813292Y-96752290D01*
X142917637Y-96625145D01*
X142995173Y-96480086D01*
X143042919Y-96322688D01*
X143055001Y-96200018D01*
X143055001Y-96200008D01*
X143059040Y-96159000D01*
X143055001Y-96117992D01*
X143055001Y-94001008D01*
X143059040Y-93960000D01*
X143055001Y-93918992D01*
X143055001Y-93918982D01*
X143042919Y-93796312D01*
X142995173Y-93638914D01*
X142917637Y-93493855D01*
X142813292Y-93366710D01*
X142781427Y-93340559D01*
X142458072Y-93017204D01*
X142458072Y-91860000D01*
X142445812Y-91735518D01*
X142409502Y-91615820D01*
X142350537Y-91505506D01*
X142271185Y-91408815D01*
X142174494Y-91329463D01*
X142064180Y-91270498D01*
X141944482Y-91234188D01*
X141820000Y-91221928D01*
X140120000Y-91221928D01*
X139995518Y-91234188D01*
X139875820Y-91270498D01*
X139765506Y-91329463D01*
X139668815Y-91408815D01*
X139589463Y-91505506D01*
X139530498Y-91615820D01*
X139508487Y-91688380D01*
X139376632Y-91556525D01*
X139133411Y-91394010D01*
X138863158Y-91282068D01*
X138665180Y-91242687D01*
X139753428Y-90154440D01*
X139785291Y-90128291D01*
X139889636Y-90001146D01*
X139967172Y-89856087D01*
X140014918Y-89698689D01*
X140027000Y-89576019D01*
X140027000Y-89576018D01*
X140031040Y-89535001D01*
X140027000Y-89493982D01*
X140027000Y-87481285D01*
X140109205Y-87358256D01*
X140187226Y-87169898D01*
X140227000Y-86969939D01*
X140227000Y-86766061D01*
X140187226Y-86566102D01*
X140109205Y-86377744D01*
X140012490Y-86233000D01*
X140109205Y-86088256D01*
X140187226Y-85899898D01*
X140227000Y-85699939D01*
X140227000Y-85496061D01*
X140187226Y-85296102D01*
X140109205Y-85107744D01*
X139995937Y-84938226D01*
X139851774Y-84794063D01*
X139682256Y-84680795D01*
X139493898Y-84602774D01*
X139293939Y-84563000D01*
X139090061Y-84563000D01*
X138890102Y-84602774D01*
X138701744Y-84680795D01*
X138532226Y-84794063D01*
X138503000Y-84823289D01*
X138503000Y-72917000D01*
X138658939Y-72917000D01*
X138690229Y-72910776D01*
X138704774Y-72983898D01*
X138782795Y-73172256D01*
X138865000Y-73295285D01*
X138865001Y-76640714D01*
X138782795Y-76763744D01*
X138704774Y-76952102D01*
X138665000Y-77152061D01*
X138665000Y-77355939D01*
X138704774Y-77555898D01*
X138782795Y-77744256D01*
X138896063Y-77913774D01*
X139040226Y-78057937D01*
X139209744Y-78171205D01*
X139398102Y-78249226D01*
X139598061Y-78289000D01*
X139801939Y-78289000D01*
X140001898Y-78249226D01*
X140190256Y-78171205D01*
X140359774Y-78057937D01*
X140503937Y-77913774D01*
X140617205Y-77744256D01*
X140695226Y-77555898D01*
X140735000Y-77355939D01*
X140735000Y-77152061D01*
X140695226Y-76952102D01*
X140617205Y-76763744D01*
X140535000Y-76640715D01*
X140535000Y-73295285D01*
X140617205Y-73172256D01*
X140695226Y-72983898D01*
X140735000Y-72783939D01*
X140735000Y-72717000D01*
X141180777Y-72717000D01*
X141195795Y-72753256D01*
X141278000Y-72876285D01*
X141278001Y-78140131D01*
X141067224Y-78350908D01*
X140922102Y-78379774D01*
X140733744Y-78457795D01*
X140564226Y-78571063D01*
X140420063Y-78715226D01*
X140306795Y-78884744D01*
X140228774Y-79073102D01*
X140189000Y-79273061D01*
X140189000Y-79476939D01*
X140228774Y-79676898D01*
X140306795Y-79865256D01*
X140420063Y-80034774D01*
X140564226Y-80178937D01*
X140733744Y-80292205D01*
X140922102Y-80370226D01*
X141122061Y-80410000D01*
X141325939Y-80410000D01*
X141525898Y-80370226D01*
X141714256Y-80292205D01*
X141883774Y-80178937D01*
X142027937Y-80034774D01*
X142078002Y-79959846D01*
X142078002Y-80906036D01*
X141961226Y-80984063D01*
X141817063Y-81128226D01*
X141703795Y-81297744D01*
X141625774Y-81486102D01*
X141586000Y-81686061D01*
X141586000Y-81889939D01*
X141625774Y-82089898D01*
X141703795Y-82278256D01*
X141817063Y-82447774D01*
X141961226Y-82591937D01*
X142130744Y-82705205D01*
X142319102Y-82783226D01*
X142519061Y-82823000D01*
X142722939Y-82823000D01*
X142922898Y-82783226D01*
X143111256Y-82705205D01*
X143280774Y-82591937D01*
X143424937Y-82447774D01*
X143538205Y-82278256D01*
X143616226Y-82089898D01*
X143656000Y-81889939D01*
X143656000Y-81877277D01*
X143688173Y-81817086D01*
X143735919Y-81659688D01*
X143748001Y-81537018D01*
X143748001Y-81537017D01*
X143752041Y-81495999D01*
X143748001Y-81454981D01*
X143748001Y-71580019D01*
X143752041Y-71539001D01*
X143735919Y-71375313D01*
X143715478Y-71307928D01*
X143688173Y-71217914D01*
X143610637Y-71072855D01*
X143506292Y-70945710D01*
X143474428Y-70919560D01*
X143456000Y-70901132D01*
X143456000Y-70655223D01*
X143492256Y-70640205D01*
X143661774Y-70526937D01*
X143805937Y-70382774D01*
X143919205Y-70213256D01*
X143997226Y-70024898D01*
X144037000Y-69824939D01*
X144037000Y-69621061D01*
X143997226Y-69421102D01*
X143919205Y-69232744D01*
X143805937Y-69063226D01*
X143661774Y-68919063D01*
X143492256Y-68805795D01*
X143303898Y-68727774D01*
X143103939Y-68688000D01*
X142900061Y-68688000D01*
X142700102Y-68727774D01*
X142511744Y-68805795D01*
X142342226Y-68919063D01*
X142198063Y-69063226D01*
X142084795Y-69232744D01*
X142006774Y-69421102D01*
X141976551Y-69573046D01*
X141923365Y-69637854D01*
X141923364Y-69637855D01*
X141845828Y-69782914D01*
X141798082Y-69940312D01*
X141781960Y-70104000D01*
X141786000Y-70145019D01*
X141786001Y-71048279D01*
X141773019Y-71047000D01*
X141773018Y-71047000D01*
X141732000Y-71042960D01*
X141690982Y-71047000D01*
X139170285Y-71047000D01*
X139047256Y-70964795D01*
X138858898Y-70886774D01*
X138658939Y-70847000D01*
X138503000Y-70847000D01*
X138503000Y-70830878D01*
X138586785Y-70747092D01*
X138731908Y-70718226D01*
X138920266Y-70640205D01*
X139089784Y-70526937D01*
X139233947Y-70382774D01*
X139347215Y-70213256D01*
X139425236Y-70024898D01*
X139465010Y-69824939D01*
X139465010Y-69621061D01*
X139425236Y-69421102D01*
X139347215Y-69232744D01*
X139233947Y-69063226D01*
X139089784Y-68919063D01*
X138920266Y-68805795D01*
X138731908Y-68727774D01*
X138531949Y-68688000D01*
X138328071Y-68688000D01*
X138128112Y-68727774D01*
X137939754Y-68805795D01*
X137770236Y-68919063D01*
X137626073Y-69063226D01*
X137512805Y-69232744D01*
X137434784Y-69421102D01*
X137405918Y-69566225D01*
X137106574Y-69865569D01*
X137074710Y-69891719D01*
X137048562Y-69923581D01*
X136970364Y-70018865D01*
X136892828Y-70163924D01*
X136845082Y-70321322D01*
X136828960Y-70485010D01*
X136833001Y-70526039D01*
X136833000Y-84984715D01*
X136750795Y-85107744D01*
X136672774Y-85296102D01*
X136633000Y-85496061D01*
X136633000Y-85613998D01*
X135588020Y-85613998D01*
X135547002Y-85609958D01*
X135505983Y-85613998D01*
X135383313Y-85626080D01*
X135225915Y-85673826D01*
X135080856Y-85751362D01*
X134953711Y-85855707D01*
X134927565Y-85887566D01*
X133725633Y-87089499D01*
X133677000Y-87016715D01*
X133677000Y-81829018D01*
X133681040Y-81788000D01*
X133664918Y-81624312D01*
X133664294Y-81622253D01*
X133617172Y-81466913D01*
X133539636Y-81321854D01*
X133461439Y-81226570D01*
X133461437Y-81226568D01*
X133435291Y-81194709D01*
X133403432Y-81168563D01*
X131072093Y-78837225D01*
X131043226Y-78692102D01*
X130965205Y-78503744D01*
X130851937Y-78334226D01*
X130707774Y-78190063D01*
X130538256Y-78076795D01*
X130349898Y-77998774D01*
X130149939Y-77959000D01*
X129946061Y-77959000D01*
X129746102Y-77998774D01*
X129557744Y-78076795D01*
X129388226Y-78190063D01*
X129244063Y-78334226D01*
X129130795Y-78503744D01*
X129052774Y-78692102D01*
X129013000Y-78892061D01*
X129013000Y-79095939D01*
X129052774Y-79295898D01*
X129130795Y-79484256D01*
X129244063Y-79653774D01*
X129388226Y-79797937D01*
X129557744Y-79911205D01*
X129746102Y-79989226D01*
X129891225Y-80018093D01*
X132007001Y-82133870D01*
X132007000Y-87016715D01*
X131924795Y-87139744D01*
X131846774Y-87328102D01*
X131841663Y-87353796D01*
X131580093Y-87092225D01*
X131551226Y-86947102D01*
X131473205Y-86758744D01*
X131359937Y-86589226D01*
X131215774Y-86445063D01*
X131046256Y-86331795D01*
X130857898Y-86253774D01*
X130657939Y-86214000D01*
X130454061Y-86214000D01*
X130254102Y-86253774D01*
X130065744Y-86331795D01*
X129896226Y-86445063D01*
X129752063Y-86589226D01*
X129638795Y-86758744D01*
X129560774Y-86947102D01*
X129521000Y-87147061D01*
X129521000Y-87350939D01*
X129560774Y-87550898D01*
X129638795Y-87739256D01*
X129752063Y-87908774D01*
X129896226Y-88052937D01*
X130065744Y-88166205D01*
X130254102Y-88244226D01*
X130399225Y-88273093D01*
X131206558Y-89080426D01*
X131232709Y-89112291D01*
X131359854Y-89216636D01*
X131504913Y-89294172D01*
X131662311Y-89341918D01*
X131784981Y-89354000D01*
X131784983Y-89354000D01*
X131825999Y-89358040D01*
X131867015Y-89354000D01*
X132642001Y-89354000D01*
X132642000Y-92795981D01*
X132637960Y-92837000D01*
X132642000Y-92878018D01*
X132654082Y-93000688D01*
X132701828Y-93158086D01*
X132779364Y-93303145D01*
X132883709Y-93430291D01*
X132915579Y-93456446D01*
X134431193Y-94972061D01*
X134405000Y-95103740D01*
X134405000Y-95396260D01*
X134462068Y-95683158D01*
X134574010Y-95953411D01*
X134736525Y-96196632D01*
X134943368Y-96403475D01*
X135186589Y-96565990D01*
X135456842Y-96677932D01*
X135743740Y-96735000D01*
X136036260Y-96735000D01*
X136323158Y-96677932D01*
X136593411Y-96565990D01*
X136836632Y-96403475D01*
X137043475Y-96196632D01*
X137160000Y-96022240D01*
X137276525Y-96196632D01*
X137483368Y-96403475D01*
X137726589Y-96565990D01*
X137996842Y-96677932D01*
X138088891Y-96696242D01*
X137868574Y-96916559D01*
X137836710Y-96942709D01*
X137810562Y-96974571D01*
X137732364Y-97069855D01*
X137657371Y-97210157D01*
X137555518Y-97220188D01*
X137435820Y-97256498D01*
X137325506Y-97315463D01*
X137228815Y-97394815D01*
X137160000Y-97478667D01*
X137091185Y-97394815D01*
X136994494Y-97315463D01*
X136884180Y-97256498D01*
X136764482Y-97220188D01*
X136640000Y-97207928D01*
X136175750Y-97211000D01*
X136017000Y-97369750D01*
X136017000Y-101219000D01*
X136037000Y-101219000D01*
X136037000Y-101473000D01*
X136017000Y-101473000D01*
X136017000Y-101493000D01*
X135763000Y-101493000D01*
X135763000Y-101473000D01*
X134663750Y-101473000D01*
X134505000Y-101631750D01*
X134502505Y-104242000D01*
X132609895Y-104242000D01*
X131499721Y-104168262D01*
X130430562Y-103952682D01*
X129399313Y-103597594D01*
X128424076Y-103109232D01*
X127522004Y-102496185D01*
X126708928Y-101769210D01*
X125999148Y-100941096D01*
X125405120Y-100026373D01*
X124937291Y-99041129D01*
X124603877Y-98002668D01*
X124575689Y-97846000D01*
X134501928Y-97846000D01*
X134505000Y-101060250D01*
X134663750Y-101219000D01*
X135763000Y-101219000D01*
X135763000Y-97369750D01*
X135604250Y-97211000D01*
X135140000Y-97207928D01*
X135015518Y-97220188D01*
X134895820Y-97256498D01*
X134785506Y-97315463D01*
X134688815Y-97394815D01*
X134609463Y-97491506D01*
X134550498Y-97601820D01*
X134514188Y-97721518D01*
X134501928Y-97846000D01*
X124575689Y-97846000D01*
X124410121Y-96925814D01*
X124358000Y-95993563D01*
X124358000Y-84609740D01*
X125769000Y-84609740D01*
X125769000Y-84902260D01*
X125826068Y-85189158D01*
X125938010Y-85459411D01*
X126100525Y-85702632D01*
X126307368Y-85909475D01*
X126550589Y-86071990D01*
X126820842Y-86183932D01*
X127107740Y-86241000D01*
X127400260Y-86241000D01*
X127687158Y-86183932D01*
X127957411Y-86071990D01*
X128200632Y-85909475D01*
X128407475Y-85702632D01*
X128569990Y-85459411D01*
X128681932Y-85189158D01*
X128739000Y-84902260D01*
X128739000Y-84609740D01*
X128681932Y-84322842D01*
X128569990Y-84052589D01*
X128407475Y-83809368D01*
X128200632Y-83602525D01*
X128037590Y-83493584D01*
X128102792Y-83284397D01*
X127254000Y-82435605D01*
X126405208Y-83284397D01*
X126470410Y-83493584D01*
X126307368Y-83602525D01*
X126100525Y-83809368D01*
X125938010Y-84052589D01*
X125826068Y-84322842D01*
X125769000Y-84609740D01*
X124358000Y-84609740D01*
X124358000Y-82324531D01*
X125763389Y-82324531D01*
X125805401Y-82614019D01*
X125903081Y-82889747D01*
X125976528Y-83027157D01*
X126225603Y-83104792D01*
X127074395Y-82256000D01*
X127433605Y-82256000D01*
X128282397Y-83104792D01*
X128531472Y-83027157D01*
X128657371Y-82763117D01*
X128729339Y-82479589D01*
X128744611Y-82187469D01*
X128702599Y-81897981D01*
X128604919Y-81622253D01*
X128531472Y-81484843D01*
X128282397Y-81407208D01*
X127433605Y-82256000D01*
X127074395Y-82256000D01*
X126225603Y-81407208D01*
X125976528Y-81484843D01*
X125850629Y-81748883D01*
X125778661Y-82032411D01*
X125763389Y-82324531D01*
X124358000Y-82324531D01*
X124358000Y-79609740D01*
X125769000Y-79609740D01*
X125769000Y-79902260D01*
X125826068Y-80189158D01*
X125938010Y-80459411D01*
X126100525Y-80702632D01*
X126307368Y-80909475D01*
X126470410Y-81018416D01*
X126405208Y-81227603D01*
X127254000Y-82076395D01*
X128102792Y-81227603D01*
X128037590Y-81018416D01*
X128200632Y-80909475D01*
X128407475Y-80702632D01*
X128569990Y-80459411D01*
X128681932Y-80189158D01*
X128739000Y-79902260D01*
X128739000Y-79609740D01*
X128681932Y-79322842D01*
X128569990Y-79052589D01*
X128407475Y-78809368D01*
X128200632Y-78602525D01*
X127957411Y-78440010D01*
X127687158Y-78328068D01*
X127400260Y-78271000D01*
X127107740Y-78271000D01*
X126820842Y-78328068D01*
X126550589Y-78440010D01*
X126307368Y-78602525D01*
X126100525Y-78809368D01*
X125938010Y-79052589D01*
X125826068Y-79322842D01*
X125769000Y-79609740D01*
X124358000Y-79609740D01*
X124358000Y-66200881D01*
X125748724Y-66200881D01*
X126108912Y-66690548D01*
X126772882Y-67050849D01*
X127494385Y-67274694D01*
X128245695Y-67353480D01*
X128997938Y-67284178D01*
X129722208Y-67069452D01*
X130390670Y-66717555D01*
X130431088Y-66690548D01*
X130791276Y-66200881D01*
X146068724Y-66200881D01*
X146428912Y-66690548D01*
X147092882Y-67050849D01*
X147814385Y-67274694D01*
X148565695Y-67353480D01*
X149317938Y-67284178D01*
X150042208Y-67069452D01*
X150710670Y-66717555D01*
X150751088Y-66690548D01*
X151111276Y-66200881D01*
X148590000Y-63679605D01*
X146068724Y-66200881D01*
X130791276Y-66200881D01*
X128270000Y-63679605D01*
X125748724Y-66200881D01*
X124358000Y-66200881D01*
X124358000Y-63530256D01*
X124363013Y-63475695D01*
X124416520Y-63475695D01*
X124485822Y-64227938D01*
X124700548Y-64952208D01*
X125052445Y-65620670D01*
X125079452Y-65661088D01*
X125569119Y-66021276D01*
X128090395Y-63500000D01*
X128449605Y-63500000D01*
X130970881Y-66021276D01*
X131460548Y-65661088D01*
X131820849Y-64997118D01*
X132044694Y-64275615D01*
X132123480Y-63524305D01*
X132111396Y-63393137D01*
X135145000Y-63393137D01*
X135145000Y-63606863D01*
X135186696Y-63816483D01*
X135268485Y-64013940D01*
X135387225Y-64191647D01*
X135538353Y-64342775D01*
X135716060Y-64461515D01*
X135913517Y-64543304D01*
X136123137Y-64585000D01*
X136336863Y-64585000D01*
X136546483Y-64543304D01*
X136743940Y-64461515D01*
X136921647Y-64342775D01*
X137072775Y-64191647D01*
X137191515Y-64013940D01*
X137273304Y-63816483D01*
X137315000Y-63606863D01*
X137315000Y-63393137D01*
X139545000Y-63393137D01*
X139545000Y-63606863D01*
X139586696Y-63816483D01*
X139668485Y-64013940D01*
X139787225Y-64191647D01*
X139938353Y-64342775D01*
X140116060Y-64461515D01*
X140313517Y-64543304D01*
X140523137Y-64585000D01*
X140736863Y-64585000D01*
X140946483Y-64543304D01*
X141143940Y-64461515D01*
X141321647Y-64342775D01*
X141472775Y-64191647D01*
X141591515Y-64013940D01*
X141673304Y-63816483D01*
X141715000Y-63606863D01*
X141715000Y-63475695D01*
X144736520Y-63475695D01*
X144805822Y-64227938D01*
X145020548Y-64952208D01*
X145372445Y-65620670D01*
X145399452Y-65661088D01*
X145889119Y-66021276D01*
X148410395Y-63500000D01*
X148769605Y-63500000D01*
X151290881Y-66021276D01*
X151780548Y-65661088D01*
X152140849Y-64997118D01*
X152364694Y-64275615D01*
X152443480Y-63524305D01*
X152374178Y-62772062D01*
X152159452Y-62047792D01*
X151807555Y-61379330D01*
X151780548Y-61338912D01*
X151290881Y-60978724D01*
X148769605Y-63500000D01*
X148410395Y-63500000D01*
X145889119Y-60978724D01*
X145399452Y-61338912D01*
X145039151Y-62002882D01*
X144815306Y-62724385D01*
X144736520Y-63475695D01*
X141715000Y-63475695D01*
X141715000Y-63393137D01*
X141673304Y-63183517D01*
X141591515Y-62986060D01*
X141472775Y-62808353D01*
X141321647Y-62657225D01*
X141143940Y-62538485D01*
X140946483Y-62456696D01*
X140736863Y-62415000D01*
X140523137Y-62415000D01*
X140313517Y-62456696D01*
X140116060Y-62538485D01*
X139938353Y-62657225D01*
X139787225Y-62808353D01*
X139668485Y-62986060D01*
X139586696Y-63183517D01*
X139545000Y-63393137D01*
X137315000Y-63393137D01*
X137273304Y-63183517D01*
X137191515Y-62986060D01*
X137072775Y-62808353D01*
X136921647Y-62657225D01*
X136743940Y-62538485D01*
X136546483Y-62456696D01*
X136336863Y-62415000D01*
X136123137Y-62415000D01*
X135913517Y-62456696D01*
X135716060Y-62538485D01*
X135538353Y-62657225D01*
X135387225Y-62808353D01*
X135268485Y-62986060D01*
X135186696Y-63183517D01*
X135145000Y-63393137D01*
X132111396Y-63393137D01*
X132054178Y-62772062D01*
X131839452Y-62047792D01*
X131487555Y-61379330D01*
X131460548Y-61338912D01*
X130970881Y-60978724D01*
X128449605Y-63500000D01*
X128090395Y-63500000D01*
X125569119Y-60978724D01*
X125079452Y-61338912D01*
X124719151Y-62002882D01*
X124495306Y-62724385D01*
X124416520Y-63475695D01*
X124363013Y-63475695D01*
X124426241Y-62787604D01*
X124620429Y-62099060D01*
X124936843Y-61457437D01*
X125364882Y-60884223D01*
X125456947Y-60799119D01*
X125748724Y-60799119D01*
X128270000Y-63320395D01*
X130791276Y-60799119D01*
X146068724Y-60799119D01*
X148590000Y-63320395D01*
X151111276Y-60799119D01*
X150751088Y-60309452D01*
X150087118Y-59949151D01*
X149365615Y-59725306D01*
X148614305Y-59646520D01*
X147862062Y-59715822D01*
X147137792Y-59930548D01*
X146469330Y-60282445D01*
X146428912Y-60309452D01*
X146068724Y-60799119D01*
X130791276Y-60799119D01*
X130431088Y-60309452D01*
X129767118Y-59949151D01*
X129045615Y-59725306D01*
X128294305Y-59646520D01*
X127542062Y-59715822D01*
X126817792Y-59930548D01*
X126149330Y-60282445D01*
X126108912Y-60309452D01*
X125748724Y-60799119D01*
X125456947Y-60799119D01*
X125890220Y-60398607D01*
X126495255Y-60016858D01*
X127159720Y-59751763D01*
X127874173Y-59609650D01*
X128287274Y-59588000D01*
X148559744Y-59588000D01*
X149302396Y-59656241D01*
G37*
%TD.AperFunction*%
D18*
X138274795Y-87358256D02*
X138357001Y-87481286D01*
X138357000Y-89189132D01*
X136618573Y-90927560D01*
X136586709Y-90953710D01*
X136560561Y-90985572D01*
X136482363Y-91080856D01*
X136404827Y-91225915D01*
X136379683Y-91308803D01*
X136246890Y-91268524D01*
X136017000Y-91389845D01*
X136017000Y-92583000D01*
X136037000Y-92583000D01*
X136037000Y-92837000D01*
X136017000Y-92837000D01*
X136017000Y-92857000D01*
X135763000Y-92857000D01*
X135763000Y-92837000D01*
X135743000Y-92837000D01*
X135743000Y-92583000D01*
X135763000Y-92583000D01*
X135763000Y-91389845D01*
X135533110Y-91268524D01*
X135465373Y-91289070D01*
X135488226Y-91233898D01*
X135528000Y-91033939D01*
X135528000Y-90830061D01*
X135488226Y-90630102D01*
X135410205Y-90441744D01*
X135328000Y-90318715D01*
X135328000Y-89513285D01*
X135410205Y-89390256D01*
X135488226Y-89201898D01*
X135528000Y-89001939D01*
X135528000Y-88798061D01*
X135488226Y-88598102D01*
X135410205Y-88409744D01*
X135296937Y-88240226D01*
X135152774Y-88096063D01*
X135109632Y-88067236D01*
X135892871Y-87283998D01*
X138244036Y-87283998D01*
X138274795Y-87358256D01*
%TA.AperFunction,Conductor*%
D19*
G36*
X138274795Y-87358256D02*
G01*
X138357001Y-87481286D01*
X138357000Y-89189132D01*
X136618573Y-90927560D01*
X136586709Y-90953710D01*
X136560561Y-90985572D01*
X136482363Y-91080856D01*
X136404827Y-91225915D01*
X136379683Y-91308803D01*
X136246890Y-91268524D01*
X136017000Y-91389845D01*
X136017000Y-92583000D01*
X136037000Y-92583000D01*
X136037000Y-92837000D01*
X136017000Y-92837000D01*
X136017000Y-92857000D01*
X135763000Y-92857000D01*
X135763000Y-92837000D01*
X135743000Y-92837000D01*
X135743000Y-92583000D01*
X135763000Y-92583000D01*
X135763000Y-91389845D01*
X135533110Y-91268524D01*
X135465373Y-91289070D01*
X135488226Y-91233898D01*
X135528000Y-91033939D01*
X135528000Y-90830061D01*
X135488226Y-90630102D01*
X135410205Y-90441744D01*
X135328000Y-90318715D01*
X135328000Y-89513285D01*
X135410205Y-89390256D01*
X135488226Y-89201898D01*
X135528000Y-89001939D01*
X135528000Y-88798061D01*
X135488226Y-88598102D01*
X135410205Y-88409744D01*
X135296937Y-88240226D01*
X135152774Y-88096063D01*
X135109632Y-88067236D01*
X135892871Y-87283998D01*
X138244036Y-87283998D01*
X138274795Y-87358256D01*
G37*
%TD.AperFunction*%
%TD*%
M02*
