%TF.GenerationSoftware,KiCad,Pcbnew,(5.1.10)-1*%
%TF.CreationDate,2021-09-08T15:10:06+01:00*%
%TF.ProjectId,Tiny-Pogo-AVR,54696e79-2d50-46f6-976f-2d4156522e6b,rev?*%
%TF.SameCoordinates,Original*%
%TF.FileFunction,Legend,Top*%
%TF.FilePolarity,Positive*%
%FSLAX46Y46*%
G04 Gerber Fmt 4.6, Leading zero omitted, Abs format (unit mm)*
G04 Created by KiCad (PCBNEW (5.1.10)-1) date 2021-09-08 15:10:06*
%MOMM*%
%LPD*%
G01*
G04 APERTURE LIST*
%ADD10C,0.200000*%
%ADD11C,0.300000*%
%ADD12C,0.120000*%
%ADD13C,0.150000*%
G04 APERTURE END LIST*
D10*
X133430095Y-90881904D02*
X132811047Y-91315238D01*
X133430095Y-91624761D02*
X132130095Y-91624761D01*
X132130095Y-91129523D01*
X132192000Y-91005714D01*
X132253904Y-90943809D01*
X132377714Y-90881904D01*
X132563428Y-90881904D01*
X132687238Y-90943809D01*
X132749142Y-91005714D01*
X132811047Y-91129523D01*
X132811047Y-91624761D01*
X133368190Y-90386666D02*
X133430095Y-90200952D01*
X133430095Y-89891428D01*
X133368190Y-89767619D01*
X133306285Y-89705714D01*
X133182476Y-89643809D01*
X133058666Y-89643809D01*
X132934857Y-89705714D01*
X132872952Y-89767619D01*
X132811047Y-89891428D01*
X132749142Y-90139047D01*
X132687238Y-90262857D01*
X132625333Y-90324761D01*
X132501523Y-90386666D01*
X132377714Y-90386666D01*
X132253904Y-90324761D01*
X132192000Y-90262857D01*
X132130095Y-90139047D01*
X132130095Y-89829523D01*
X132192000Y-89643809D01*
X132130095Y-89272380D02*
X132130095Y-88529523D01*
X133430095Y-88900952D02*
X132130095Y-88900952D01*
X131590190Y-91587428D02*
X131652095Y-91401714D01*
X131652095Y-91092190D01*
X131590190Y-90968380D01*
X131528285Y-90906476D01*
X131404476Y-90844571D01*
X131280666Y-90844571D01*
X131156857Y-90906476D01*
X131094952Y-90968380D01*
X131033047Y-91092190D01*
X130971142Y-91339809D01*
X130909238Y-91463619D01*
X130847333Y-91525523D01*
X130723523Y-91587428D01*
X130599714Y-91587428D01*
X130475904Y-91525523D01*
X130414000Y-91463619D01*
X130352095Y-91339809D01*
X130352095Y-91030285D01*
X130414000Y-90844571D01*
X131528285Y-89544571D02*
X131590190Y-89606476D01*
X131652095Y-89792190D01*
X131652095Y-89916000D01*
X131590190Y-90101714D01*
X131466380Y-90225523D01*
X131342571Y-90287428D01*
X131094952Y-90349333D01*
X130909238Y-90349333D01*
X130661619Y-90287428D01*
X130537809Y-90225523D01*
X130414000Y-90101714D01*
X130352095Y-89916000D01*
X130352095Y-89792190D01*
X130414000Y-89606476D01*
X130475904Y-89544571D01*
X131652095Y-88987428D02*
X130352095Y-88987428D01*
X131652095Y-88244571D02*
X130909238Y-88801714D01*
X130352095Y-88244571D02*
X131094952Y-88987428D01*
X129874095Y-91704857D02*
X128574095Y-91704857D01*
X129502666Y-91271523D01*
X128574095Y-90838190D01*
X129874095Y-90838190D01*
X128574095Y-89971523D02*
X128574095Y-89723904D01*
X128636000Y-89600095D01*
X128759809Y-89476285D01*
X129007428Y-89414380D01*
X129440761Y-89414380D01*
X129688380Y-89476285D01*
X129812190Y-89600095D01*
X129874095Y-89723904D01*
X129874095Y-89971523D01*
X129812190Y-90095333D01*
X129688380Y-90219142D01*
X129440761Y-90281047D01*
X129007428Y-90281047D01*
X128759809Y-90219142D01*
X128636000Y-90095333D01*
X128574095Y-89971523D01*
X129812190Y-88919142D02*
X129874095Y-88733428D01*
X129874095Y-88423904D01*
X129812190Y-88300095D01*
X129750285Y-88238190D01*
X129626476Y-88176285D01*
X129502666Y-88176285D01*
X129378857Y-88238190D01*
X129316952Y-88300095D01*
X129255047Y-88423904D01*
X129193142Y-88671523D01*
X129131238Y-88795333D01*
X129069333Y-88857238D01*
X128945523Y-88919142D01*
X128821714Y-88919142D01*
X128697904Y-88857238D01*
X128636000Y-88795333D01*
X128574095Y-88671523D01*
X128574095Y-88362000D01*
X128636000Y-88176285D01*
X129874095Y-87619142D02*
X128574095Y-87619142D01*
X128096095Y-91704857D02*
X126796095Y-91704857D01*
X127724666Y-91271523D01*
X126796095Y-90838190D01*
X128096095Y-90838190D01*
X128096095Y-90219142D02*
X126796095Y-90219142D01*
X128034190Y-89662000D02*
X128096095Y-89476285D01*
X128096095Y-89166761D01*
X128034190Y-89042952D01*
X127972285Y-88981047D01*
X127848476Y-88919142D01*
X127724666Y-88919142D01*
X127600857Y-88981047D01*
X127538952Y-89042952D01*
X127477047Y-89166761D01*
X127415142Y-89414380D01*
X127353238Y-89538190D01*
X127291333Y-89600095D01*
X127167523Y-89662000D01*
X127043714Y-89662000D01*
X126919904Y-89600095D01*
X126858000Y-89538190D01*
X126796095Y-89414380D01*
X126796095Y-89104857D01*
X126858000Y-88919142D01*
X126796095Y-88114380D02*
X126796095Y-87866761D01*
X126858000Y-87742952D01*
X126981809Y-87619142D01*
X127229428Y-87557238D01*
X127662761Y-87557238D01*
X127910380Y-87619142D01*
X128034190Y-87742952D01*
X128096095Y-87866761D01*
X128096095Y-88114380D01*
X128034190Y-88238190D01*
X127910380Y-88362000D01*
X127662761Y-88423904D01*
X127229428Y-88423904D01*
X126981809Y-88362000D01*
X126858000Y-88238190D01*
X126796095Y-88114380D01*
D11*
X151808571Y-89939714D02*
X151737142Y-90082571D01*
X151665714Y-90154000D01*
X151522857Y-90225428D01*
X151094285Y-90225428D01*
X150951428Y-90154000D01*
X150880000Y-90082571D01*
X150808571Y-89939714D01*
X150808571Y-89725428D01*
X150880000Y-89582571D01*
X150951428Y-89511142D01*
X151094285Y-89439714D01*
X151522857Y-89439714D01*
X151665714Y-89511142D01*
X151737142Y-89582571D01*
X151808571Y-89725428D01*
X151808571Y-89939714D01*
X150808571Y-88796857D02*
X151808571Y-88796857D01*
X150951428Y-88796857D02*
X150880000Y-88725428D01*
X150808571Y-88582571D01*
X150808571Y-88368285D01*
X150880000Y-88225428D01*
X151022857Y-88154000D01*
X151808571Y-88154000D01*
X144950571Y-89864285D02*
X144879142Y-90007142D01*
X144807714Y-90078571D01*
X144664857Y-90150000D01*
X144236285Y-90150000D01*
X144093428Y-90078571D01*
X144022000Y-90007142D01*
X143950571Y-89864285D01*
X143950571Y-89650000D01*
X144022000Y-89507142D01*
X144093428Y-89435714D01*
X144236285Y-89364285D01*
X144664857Y-89364285D01*
X144807714Y-89435714D01*
X144879142Y-89507142D01*
X144950571Y-89650000D01*
X144950571Y-89864285D01*
X143950571Y-88935714D02*
X143950571Y-88364285D01*
X144950571Y-88721428D02*
X143664857Y-88721428D01*
X143522000Y-88650000D01*
X143450571Y-88507142D01*
X143450571Y-88364285D01*
X143950571Y-88078571D02*
X143950571Y-87507142D01*
X144950571Y-87864285D02*
X143664857Y-87864285D01*
X143522000Y-87792857D01*
X143450571Y-87650000D01*
X143450571Y-87507142D01*
X143450571Y-85204857D02*
X144664857Y-85204857D01*
X144807714Y-85133428D01*
X144879142Y-85062000D01*
X144950571Y-84919142D01*
X144950571Y-84633428D01*
X144879142Y-84490571D01*
X144807714Y-84419142D01*
X144664857Y-84347714D01*
X143450571Y-84347714D01*
X144879142Y-83704857D02*
X144950571Y-83490571D01*
X144950571Y-83133428D01*
X144879142Y-82990571D01*
X144807714Y-82919142D01*
X144664857Y-82847714D01*
X144522000Y-82847714D01*
X144379142Y-82919142D01*
X144307714Y-82990571D01*
X144236285Y-83133428D01*
X144164857Y-83419142D01*
X144093428Y-83562000D01*
X144022000Y-83633428D01*
X143879142Y-83704857D01*
X143736285Y-83704857D01*
X143593428Y-83633428D01*
X143522000Y-83562000D01*
X143450571Y-83419142D01*
X143450571Y-83062000D01*
X143522000Y-82847714D01*
X144164857Y-81704857D02*
X144236285Y-81490571D01*
X144307714Y-81419142D01*
X144450571Y-81347714D01*
X144664857Y-81347714D01*
X144807714Y-81419142D01*
X144879142Y-81490571D01*
X144950571Y-81633428D01*
X144950571Y-82204857D01*
X143450571Y-82204857D01*
X143450571Y-81704857D01*
X143522000Y-81562000D01*
X143593428Y-81490571D01*
X143736285Y-81419142D01*
X143879142Y-81419142D01*
X144022000Y-81490571D01*
X144093428Y-81562000D01*
X144164857Y-81704857D01*
X144164857Y-82204857D01*
X150562571Y-84589714D02*
X150562571Y-83661142D01*
X151134000Y-84161142D01*
X151134000Y-83946857D01*
X151205428Y-83804000D01*
X151276857Y-83732571D01*
X151419714Y-83661142D01*
X151776857Y-83661142D01*
X151919714Y-83732571D01*
X151991142Y-83804000D01*
X152062571Y-83946857D01*
X152062571Y-84375428D01*
X151991142Y-84518285D01*
X151919714Y-84589714D01*
X151062571Y-83161142D02*
X152062571Y-82804000D01*
X151062571Y-82446857D01*
X150562571Y-82018285D02*
X150562571Y-81089714D01*
X151134000Y-81589714D01*
X151134000Y-81375428D01*
X151205428Y-81232571D01*
X151276857Y-81161142D01*
X151419714Y-81089714D01*
X151776857Y-81089714D01*
X151919714Y-81161142D01*
X151991142Y-81232571D01*
X152062571Y-81375428D01*
X152062571Y-81804000D01*
X151991142Y-81946857D01*
X151919714Y-82018285D01*
X144506571Y-92391571D02*
X145363714Y-92391571D01*
X144935142Y-93891571D02*
X144935142Y-92391571D01*
X146506571Y-93891571D02*
X146506571Y-93105857D01*
X146435142Y-92963000D01*
X146292285Y-92891571D01*
X146006571Y-92891571D01*
X145863714Y-92963000D01*
X146506571Y-93820142D02*
X146363714Y-93891571D01*
X146006571Y-93891571D01*
X145863714Y-93820142D01*
X145792285Y-93677285D01*
X145792285Y-93534428D01*
X145863714Y-93391571D01*
X146006571Y-93320142D01*
X146363714Y-93320142D01*
X146506571Y-93248714D01*
X147220857Y-93891571D02*
X147220857Y-92891571D01*
X147220857Y-93177285D02*
X147292285Y-93034428D01*
X147363714Y-92963000D01*
X147506571Y-92891571D01*
X147649428Y-92891571D01*
X148792285Y-92891571D02*
X148792285Y-94105857D01*
X148720857Y-94248714D01*
X148649428Y-94320142D01*
X148506571Y-94391571D01*
X148292285Y-94391571D01*
X148149428Y-94320142D01*
X148792285Y-93820142D02*
X148649428Y-93891571D01*
X148363714Y-93891571D01*
X148220857Y-93820142D01*
X148149428Y-93748714D01*
X148078000Y-93605857D01*
X148078000Y-93177285D01*
X148149428Y-93034428D01*
X148220857Y-92963000D01*
X148363714Y-92891571D01*
X148649428Y-92891571D01*
X148792285Y-92963000D01*
X150078000Y-93820142D02*
X149935142Y-93891571D01*
X149649428Y-93891571D01*
X149506571Y-93820142D01*
X149435142Y-93677285D01*
X149435142Y-93105857D01*
X149506571Y-92963000D01*
X149649428Y-92891571D01*
X149935142Y-92891571D01*
X150078000Y-92963000D01*
X150149428Y-93105857D01*
X150149428Y-93248714D01*
X149435142Y-93391571D01*
X150578000Y-92891571D02*
X151149428Y-92891571D01*
X150792285Y-92391571D02*
X150792285Y-93677285D01*
X150863714Y-93820142D01*
X151006571Y-93891571D01*
X151149428Y-93891571D01*
X144863714Y-96441571D02*
X144863714Y-94941571D01*
X145435142Y-94941571D01*
X145578000Y-95013000D01*
X145649428Y-95084428D01*
X145720857Y-95227285D01*
X145720857Y-95441571D01*
X145649428Y-95584428D01*
X145578000Y-95655857D01*
X145435142Y-95727285D01*
X144863714Y-95727285D01*
X146578000Y-96441571D02*
X146435142Y-96370142D01*
X146363714Y-96298714D01*
X146292285Y-96155857D01*
X146292285Y-95727285D01*
X146363714Y-95584428D01*
X146435142Y-95513000D01*
X146578000Y-95441571D01*
X146792285Y-95441571D01*
X146935142Y-95513000D01*
X147006571Y-95584428D01*
X147078000Y-95727285D01*
X147078000Y-96155857D01*
X147006571Y-96298714D01*
X146935142Y-96370142D01*
X146792285Y-96441571D01*
X146578000Y-96441571D01*
X147578000Y-95441571D02*
X147863714Y-96441571D01*
X148149428Y-95727285D01*
X148435142Y-96441571D01*
X148720857Y-95441571D01*
X149863714Y-96370142D02*
X149720857Y-96441571D01*
X149435142Y-96441571D01*
X149292285Y-96370142D01*
X149220857Y-96227285D01*
X149220857Y-95655857D01*
X149292285Y-95513000D01*
X149435142Y-95441571D01*
X149720857Y-95441571D01*
X149863714Y-95513000D01*
X149935142Y-95655857D01*
X149935142Y-95798714D01*
X149220857Y-95941571D01*
X150578000Y-96441571D02*
X150578000Y-95441571D01*
X150578000Y-95727285D02*
X150649428Y-95584428D01*
X150720857Y-95513000D01*
X150863714Y-95441571D01*
X151006571Y-95441571D01*
D12*
%TO.C,R9*%
X133364500Y-99043258D02*
X133364500Y-98568742D01*
X132319500Y-99043258D02*
X132319500Y-98568742D01*
%TO.C,R8*%
X131586500Y-99043258D02*
X131586500Y-98568742D01*
X130541500Y-99043258D02*
X130541500Y-98568742D01*
%TO.C,R7*%
X129808500Y-99043258D02*
X129808500Y-98568742D01*
X128763500Y-99043258D02*
X128763500Y-98568742D01*
%TO.C,R6*%
X128030500Y-99043258D02*
X128030500Y-98568742D01*
X126985500Y-99043258D02*
X126985500Y-98568742D01*
%TO.C,D6*%
X133577000Y-97014500D02*
X133577000Y-94729500D01*
X132107000Y-97014500D02*
X133577000Y-97014500D01*
X132107000Y-94729500D02*
X132107000Y-97014500D01*
%TO.C,D5*%
X131799000Y-97014500D02*
X131799000Y-94729500D01*
X130329000Y-97014500D02*
X131799000Y-97014500D01*
X130329000Y-94729500D02*
X130329000Y-97014500D01*
%TO.C,D4*%
X130021000Y-97014500D02*
X130021000Y-94729500D01*
X128551000Y-97014500D02*
X130021000Y-97014500D01*
X128551000Y-94729500D02*
X128551000Y-97014500D01*
%TO.C,D3*%
X128243000Y-97014500D02*
X128243000Y-94729500D01*
X126773000Y-97014500D02*
X128243000Y-97014500D01*
X126773000Y-94729500D02*
X126773000Y-97014500D01*
%TO.C,J2*%
X142390000Y-62050000D02*
X142390000Y-64650000D01*
X134470000Y-64650000D02*
X134470000Y-62050000D01*
X141630000Y-66960000D02*
X140480000Y-66960000D01*
X140480000Y-66960000D02*
X140480000Y-67550000D01*
X140480000Y-67550000D02*
X139780000Y-67550000D01*
X136380000Y-66960000D02*
X135230000Y-66960000D01*
X142390000Y-59150000D02*
X142390000Y-57490000D01*
X142390000Y-57490000D02*
X134470000Y-57490000D01*
X134470000Y-57490000D02*
X134470000Y-59150000D01*
%TO.C,Y1*%
X128724000Y-80026000D02*
X128724000Y-84486000D01*
X125784000Y-80026000D02*
X125784000Y-84486000D01*
X125784000Y-84486000D02*
G75*
G03*
X128724000Y-84486000I1470000J0D01*
G01*
X125784000Y-80026000D02*
G75*
G02*
X128724000Y-80026000I1470000J0D01*
G01*
%TO.C,U2*%
X145658000Y-78064000D02*
X147458000Y-78064000D01*
X147458000Y-74844000D02*
X145008000Y-74844000D01*
%TO.C,U1*%
X138430000Y-88763000D02*
X140380000Y-88763000D01*
X138430000Y-88763000D02*
X136480000Y-88763000D01*
X138430000Y-79893000D02*
X140380000Y-79893000D01*
X138430000Y-79893000D02*
X134980000Y-79893000D01*
D10*
%TO.C,SW2*%
X150128000Y-82566000D02*
X150128000Y-84566000D01*
%TO.C,SW1*%
X150128000Y-88408000D02*
X150128000Y-90408000D01*
D12*
%TO.C,R5*%
X147559500Y-99043258D02*
X147559500Y-98568742D01*
X148604500Y-99043258D02*
X148604500Y-98568742D01*
%TO.C,R4*%
X146318500Y-72660742D02*
X146318500Y-73135258D01*
X145273500Y-72660742D02*
X145273500Y-73135258D01*
%TO.C,R3*%
X140701500Y-74659258D02*
X140701500Y-74184742D01*
X141746500Y-74659258D02*
X141746500Y-74184742D01*
%TO.C,R2*%
X135875500Y-74659258D02*
X135875500Y-74184742D01*
X136920500Y-74659258D02*
X136920500Y-74184742D01*
%TO.C,R1*%
X132319500Y-85581258D02*
X132319500Y-85106742D01*
X133364500Y-85581258D02*
X133364500Y-85106742D01*
%TO.C,JP1*%
X129556000Y-83944000D02*
X131556000Y-83944000D01*
X129556000Y-86744000D02*
X129556000Y-83944000D01*
X131556000Y-86744000D02*
X129556000Y-86744000D01*
X131556000Y-83944000D02*
X131556000Y-86744000D01*
%TO.C,J3*%
X134560000Y-91380000D02*
X134560000Y-96580000D01*
X139700000Y-91380000D02*
X134560000Y-91380000D01*
X142300000Y-96580000D02*
X134560000Y-96580000D01*
X139700000Y-91380000D02*
X139700000Y-93980000D01*
X139700000Y-93980000D02*
X142300000Y-93980000D01*
X142300000Y-93980000D02*
X142300000Y-96580000D01*
X140970000Y-91380000D02*
X142300000Y-91380000D01*
X142300000Y-91380000D02*
X142300000Y-92710000D01*
%TO.C,D2*%
X145569000Y-98006000D02*
X145569000Y-100291000D01*
X145569000Y-100291000D02*
X147039000Y-100291000D01*
X147039000Y-100291000D02*
X147039000Y-98006000D01*
%TO.C,D1*%
X145061000Y-68796000D02*
X145061000Y-71081000D01*
X145061000Y-71081000D02*
X146531000Y-71081000D01*
X146531000Y-71081000D02*
X146531000Y-68796000D01*
%TO.C,C8*%
X140210000Y-74268420D02*
X140210000Y-74549580D01*
X139190000Y-74268420D02*
X139190000Y-74549580D01*
%TO.C,C7*%
X135384000Y-74281420D02*
X135384000Y-74562580D01*
X134364000Y-74281420D02*
X134364000Y-74562580D01*
%TO.C,C6*%
X143258000Y-74281420D02*
X143258000Y-74562580D01*
X142238000Y-74281420D02*
X142238000Y-74562580D01*
%TO.C,C5*%
X138432000Y-74281420D02*
X138432000Y-74562580D01*
X137412000Y-74281420D02*
X137412000Y-74562580D01*
%TO.C,C4*%
X147064000Y-73038580D02*
X147064000Y-72757420D01*
X148084000Y-73038580D02*
X148084000Y-72757420D01*
%TO.C,C3*%
X146417420Y-78738000D02*
X146698580Y-78738000D01*
X146417420Y-79758000D02*
X146698580Y-79758000D01*
%TO.C,C2*%
X132586000Y-79896580D02*
X132586000Y-79615420D01*
X133606000Y-79896580D02*
X133606000Y-79615420D01*
%TO.C,C1*%
X131062000Y-79896580D02*
X131062000Y-79615420D01*
X132082000Y-79896580D02*
X132082000Y-79615420D01*
%TO.C,R9*%
D13*
X133294380Y-101512666D02*
X132818190Y-101846000D01*
X133294380Y-102084095D02*
X132294380Y-102084095D01*
X132294380Y-101703142D01*
X132342000Y-101607904D01*
X132389619Y-101560285D01*
X132484857Y-101512666D01*
X132627714Y-101512666D01*
X132722952Y-101560285D01*
X132770571Y-101607904D01*
X132818190Y-101703142D01*
X132818190Y-102084095D01*
X133294380Y-101036476D02*
X133294380Y-100846000D01*
X133246761Y-100750761D01*
X133199142Y-100703142D01*
X133056285Y-100607904D01*
X132865809Y-100560285D01*
X132484857Y-100560285D01*
X132389619Y-100607904D01*
X132342000Y-100655523D01*
X132294380Y-100750761D01*
X132294380Y-100941238D01*
X132342000Y-101036476D01*
X132389619Y-101084095D01*
X132484857Y-101131714D01*
X132722952Y-101131714D01*
X132818190Y-101084095D01*
X132865809Y-101036476D01*
X132913428Y-100941238D01*
X132913428Y-100750761D01*
X132865809Y-100655523D01*
X132818190Y-100607904D01*
X132722952Y-100560285D01*
%TO.C,R8*%
X131516380Y-101512666D02*
X131040190Y-101846000D01*
X131516380Y-102084095D02*
X130516380Y-102084095D01*
X130516380Y-101703142D01*
X130564000Y-101607904D01*
X130611619Y-101560285D01*
X130706857Y-101512666D01*
X130849714Y-101512666D01*
X130944952Y-101560285D01*
X130992571Y-101607904D01*
X131040190Y-101703142D01*
X131040190Y-102084095D01*
X130944952Y-100941238D02*
X130897333Y-101036476D01*
X130849714Y-101084095D01*
X130754476Y-101131714D01*
X130706857Y-101131714D01*
X130611619Y-101084095D01*
X130564000Y-101036476D01*
X130516380Y-100941238D01*
X130516380Y-100750761D01*
X130564000Y-100655523D01*
X130611619Y-100607904D01*
X130706857Y-100560285D01*
X130754476Y-100560285D01*
X130849714Y-100607904D01*
X130897333Y-100655523D01*
X130944952Y-100750761D01*
X130944952Y-100941238D01*
X130992571Y-101036476D01*
X131040190Y-101084095D01*
X131135428Y-101131714D01*
X131325904Y-101131714D01*
X131421142Y-101084095D01*
X131468761Y-101036476D01*
X131516380Y-100941238D01*
X131516380Y-100750761D01*
X131468761Y-100655523D01*
X131421142Y-100607904D01*
X131325904Y-100560285D01*
X131135428Y-100560285D01*
X131040190Y-100607904D01*
X130992571Y-100655523D01*
X130944952Y-100750761D01*
%TO.C,R7*%
X129738380Y-101512666D02*
X129262190Y-101846000D01*
X129738380Y-102084095D02*
X128738380Y-102084095D01*
X128738380Y-101703142D01*
X128786000Y-101607904D01*
X128833619Y-101560285D01*
X128928857Y-101512666D01*
X129071714Y-101512666D01*
X129166952Y-101560285D01*
X129214571Y-101607904D01*
X129262190Y-101703142D01*
X129262190Y-102084095D01*
X128738380Y-101179333D02*
X128738380Y-100512666D01*
X129738380Y-100941238D01*
%TO.C,R6*%
X127960380Y-101512666D02*
X127484190Y-101846000D01*
X127960380Y-102084095D02*
X126960380Y-102084095D01*
X126960380Y-101703142D01*
X127008000Y-101607904D01*
X127055619Y-101560285D01*
X127150857Y-101512666D01*
X127293714Y-101512666D01*
X127388952Y-101560285D01*
X127436571Y-101607904D01*
X127484190Y-101703142D01*
X127484190Y-102084095D01*
X126960380Y-100655523D02*
X126960380Y-100846000D01*
X127008000Y-100941238D01*
X127055619Y-100988857D01*
X127198476Y-101084095D01*
X127388952Y-101131714D01*
X127769904Y-101131714D01*
X127865142Y-101084095D01*
X127912761Y-101036476D01*
X127960380Y-100941238D01*
X127960380Y-100750761D01*
X127912761Y-100655523D01*
X127865142Y-100607904D01*
X127769904Y-100560285D01*
X127531809Y-100560285D01*
X127436571Y-100607904D01*
X127388952Y-100655523D01*
X127341333Y-100750761D01*
X127341333Y-100941238D01*
X127388952Y-101036476D01*
X127436571Y-101084095D01*
X127531809Y-101131714D01*
%TO.C,D6*%
X133294380Y-93727595D02*
X132294380Y-93727595D01*
X132294380Y-93489500D01*
X132342000Y-93346642D01*
X132437238Y-93251404D01*
X132532476Y-93203785D01*
X132722952Y-93156166D01*
X132865809Y-93156166D01*
X133056285Y-93203785D01*
X133151523Y-93251404D01*
X133246761Y-93346642D01*
X133294380Y-93489500D01*
X133294380Y-93727595D01*
X132294380Y-92299023D02*
X132294380Y-92489500D01*
X132342000Y-92584738D01*
X132389619Y-92632357D01*
X132532476Y-92727595D01*
X132722952Y-92775214D01*
X133103904Y-92775214D01*
X133199142Y-92727595D01*
X133246761Y-92679976D01*
X133294380Y-92584738D01*
X133294380Y-92394261D01*
X133246761Y-92299023D01*
X133199142Y-92251404D01*
X133103904Y-92203785D01*
X132865809Y-92203785D01*
X132770571Y-92251404D01*
X132722952Y-92299023D01*
X132675333Y-92394261D01*
X132675333Y-92584738D01*
X132722952Y-92679976D01*
X132770571Y-92727595D01*
X132865809Y-92775214D01*
%TO.C,D5*%
X131516380Y-93702095D02*
X130516380Y-93702095D01*
X130516380Y-93464000D01*
X130564000Y-93321142D01*
X130659238Y-93225904D01*
X130754476Y-93178285D01*
X130944952Y-93130666D01*
X131087809Y-93130666D01*
X131278285Y-93178285D01*
X131373523Y-93225904D01*
X131468761Y-93321142D01*
X131516380Y-93464000D01*
X131516380Y-93702095D01*
X130516380Y-92225904D02*
X130516380Y-92702095D01*
X130992571Y-92749714D01*
X130944952Y-92702095D01*
X130897333Y-92606857D01*
X130897333Y-92368761D01*
X130944952Y-92273523D01*
X130992571Y-92225904D01*
X131087809Y-92178285D01*
X131325904Y-92178285D01*
X131421142Y-92225904D01*
X131468761Y-92273523D01*
X131516380Y-92368761D01*
X131516380Y-92606857D01*
X131468761Y-92702095D01*
X131421142Y-92749714D01*
%TO.C,D4*%
X129738380Y-93702095D02*
X128738380Y-93702095D01*
X128738380Y-93464000D01*
X128786000Y-93321142D01*
X128881238Y-93225904D01*
X128976476Y-93178285D01*
X129166952Y-93130666D01*
X129309809Y-93130666D01*
X129500285Y-93178285D01*
X129595523Y-93225904D01*
X129690761Y-93321142D01*
X129738380Y-93464000D01*
X129738380Y-93702095D01*
X129071714Y-92273523D02*
X129738380Y-92273523D01*
X128690761Y-92511619D02*
X129405047Y-92749714D01*
X129405047Y-92130666D01*
%TO.C,D3*%
X127960380Y-93702095D02*
X126960380Y-93702095D01*
X126960380Y-93464000D01*
X127008000Y-93321142D01*
X127103238Y-93225904D01*
X127198476Y-93178285D01*
X127388952Y-93130666D01*
X127531809Y-93130666D01*
X127722285Y-93178285D01*
X127817523Y-93225904D01*
X127912761Y-93321142D01*
X127960380Y-93464000D01*
X127960380Y-93702095D01*
X126960380Y-92797333D02*
X126960380Y-92178285D01*
X127341333Y-92511619D01*
X127341333Y-92368761D01*
X127388952Y-92273523D01*
X127436571Y-92225904D01*
X127531809Y-92178285D01*
X127769904Y-92178285D01*
X127865142Y-92225904D01*
X127912761Y-92273523D01*
X127960380Y-92368761D01*
X127960380Y-92654476D01*
X127912761Y-92749714D01*
X127865142Y-92797333D01*
%TO.C,H2*%
X150876095Y-68016380D02*
X150876095Y-67016380D01*
X150876095Y-67492571D02*
X151447523Y-67492571D01*
X151447523Y-68016380D02*
X151447523Y-67016380D01*
X151876095Y-67111619D02*
X151923714Y-67064000D01*
X152018952Y-67016380D01*
X152257047Y-67016380D01*
X152352285Y-67064000D01*
X152399904Y-67111619D01*
X152447523Y-67206857D01*
X152447523Y-67302095D01*
X152399904Y-67444952D01*
X151828476Y-68016380D01*
X152447523Y-68016380D01*
%TO.C,H1*%
X124968095Y-68016380D02*
X124968095Y-67016380D01*
X124968095Y-67492571D02*
X125539523Y-67492571D01*
X125539523Y-68016380D02*
X125539523Y-67016380D01*
X126539523Y-68016380D02*
X125968095Y-68016380D01*
X126253809Y-68016380D02*
X126253809Y-67016380D01*
X126158571Y-67159238D01*
X126063333Y-67254476D01*
X125968095Y-67302095D01*
%TO.C,J2*%
X138096666Y-68202380D02*
X138096666Y-68916666D01*
X138049047Y-69059523D01*
X137953809Y-69154761D01*
X137810952Y-69202380D01*
X137715714Y-69202380D01*
X138525238Y-68297619D02*
X138572857Y-68250000D01*
X138668095Y-68202380D01*
X138906190Y-68202380D01*
X139001428Y-68250000D01*
X139049047Y-68297619D01*
X139096666Y-68392857D01*
X139096666Y-68488095D01*
X139049047Y-68630952D01*
X138477619Y-69202380D01*
X139096666Y-69202380D01*
%TO.C,Y1*%
X126777809Y-77406190D02*
X126777809Y-77882380D01*
X126444476Y-76882380D02*
X126777809Y-77406190D01*
X127111142Y-76882380D01*
X127968285Y-77882380D02*
X127396857Y-77882380D01*
X127682571Y-77882380D02*
X127682571Y-76882380D01*
X127587333Y-77025238D01*
X127492095Y-77120476D01*
X127396857Y-77168095D01*
%TO.C,U4*%
X139954095Y-68540380D02*
X139954095Y-69349904D01*
X140001714Y-69445142D01*
X140049333Y-69492761D01*
X140144571Y-69540380D01*
X140335047Y-69540380D01*
X140430285Y-69492761D01*
X140477904Y-69445142D01*
X140525523Y-69349904D01*
X140525523Y-68540380D01*
X141430285Y-68873714D02*
X141430285Y-69540380D01*
X141192190Y-68492761D02*
X140954095Y-69207047D01*
X141573142Y-69207047D01*
%TO.C,U3*%
X135636095Y-68540380D02*
X135636095Y-69349904D01*
X135683714Y-69445142D01*
X135731333Y-69492761D01*
X135826571Y-69540380D01*
X136017047Y-69540380D01*
X136112285Y-69492761D01*
X136159904Y-69445142D01*
X136207523Y-69349904D01*
X136207523Y-68540380D01*
X136588476Y-68540380D02*
X137207523Y-68540380D01*
X136874190Y-68921333D01*
X137017047Y-68921333D01*
X137112285Y-68968952D01*
X137159904Y-69016571D01*
X137207523Y-69111809D01*
X137207523Y-69349904D01*
X137159904Y-69445142D01*
X137112285Y-69492761D01*
X137017047Y-69540380D01*
X136731333Y-69540380D01*
X136636095Y-69492761D01*
X136588476Y-69445142D01*
%TO.C,U2*%
X143470380Y-77723904D02*
X144279904Y-77723904D01*
X144375142Y-77676285D01*
X144422761Y-77628666D01*
X144470380Y-77533428D01*
X144470380Y-77342952D01*
X144422761Y-77247714D01*
X144375142Y-77200095D01*
X144279904Y-77152476D01*
X143470380Y-77152476D01*
X143565619Y-76723904D02*
X143518000Y-76676285D01*
X143470380Y-76581047D01*
X143470380Y-76342952D01*
X143518000Y-76247714D01*
X143565619Y-76200095D01*
X143660857Y-76152476D01*
X143756095Y-76152476D01*
X143898952Y-76200095D01*
X144470380Y-76771523D01*
X144470380Y-76152476D01*
%TO.C,U1*%
X137668095Y-78500380D02*
X137668095Y-79309904D01*
X137715714Y-79405142D01*
X137763333Y-79452761D01*
X137858571Y-79500380D01*
X138049047Y-79500380D01*
X138144285Y-79452761D01*
X138191904Y-79405142D01*
X138239523Y-79309904D01*
X138239523Y-78500380D01*
X139239523Y-79500380D02*
X138668095Y-79500380D01*
X138953809Y-79500380D02*
X138953809Y-78500380D01*
X138858571Y-78643238D01*
X138763333Y-78738476D01*
X138668095Y-78786095D01*
%TO.C,SW2*%
X149034666Y-86256761D02*
X149177523Y-86304380D01*
X149415619Y-86304380D01*
X149510857Y-86256761D01*
X149558476Y-86209142D01*
X149606095Y-86113904D01*
X149606095Y-86018666D01*
X149558476Y-85923428D01*
X149510857Y-85875809D01*
X149415619Y-85828190D01*
X149225142Y-85780571D01*
X149129904Y-85732952D01*
X149082285Y-85685333D01*
X149034666Y-85590095D01*
X149034666Y-85494857D01*
X149082285Y-85399619D01*
X149129904Y-85352000D01*
X149225142Y-85304380D01*
X149463238Y-85304380D01*
X149606095Y-85352000D01*
X149939428Y-85304380D02*
X150177523Y-86304380D01*
X150368000Y-85590095D01*
X150558476Y-86304380D01*
X150796571Y-85304380D01*
X151129904Y-85399619D02*
X151177523Y-85352000D01*
X151272761Y-85304380D01*
X151510857Y-85304380D01*
X151606095Y-85352000D01*
X151653714Y-85399619D01*
X151701333Y-85494857D01*
X151701333Y-85590095D01*
X151653714Y-85732952D01*
X151082285Y-86304380D01*
X151701333Y-86304380D01*
%TO.C,SW1*%
X148780666Y-91844761D02*
X148923523Y-91892380D01*
X149161619Y-91892380D01*
X149256857Y-91844761D01*
X149304476Y-91797142D01*
X149352095Y-91701904D01*
X149352095Y-91606666D01*
X149304476Y-91511428D01*
X149256857Y-91463809D01*
X149161619Y-91416190D01*
X148971142Y-91368571D01*
X148875904Y-91320952D01*
X148828285Y-91273333D01*
X148780666Y-91178095D01*
X148780666Y-91082857D01*
X148828285Y-90987619D01*
X148875904Y-90940000D01*
X148971142Y-90892380D01*
X149209238Y-90892380D01*
X149352095Y-90940000D01*
X149685428Y-90892380D02*
X149923523Y-91892380D01*
X150114000Y-91178095D01*
X150304476Y-91892380D01*
X150542571Y-90892380D01*
X151447333Y-91892380D02*
X150875904Y-91892380D01*
X151161619Y-91892380D02*
X151161619Y-90892380D01*
X151066380Y-91035238D01*
X150971142Y-91130476D01*
X150875904Y-91178095D01*
%TO.C,R5*%
X148534380Y-101512666D02*
X148058190Y-101846000D01*
X148534380Y-102084095D02*
X147534380Y-102084095D01*
X147534380Y-101703142D01*
X147582000Y-101607904D01*
X147629619Y-101560285D01*
X147724857Y-101512666D01*
X147867714Y-101512666D01*
X147962952Y-101560285D01*
X148010571Y-101607904D01*
X148058190Y-101703142D01*
X148058190Y-102084095D01*
X147534380Y-100607904D02*
X147534380Y-101084095D01*
X148010571Y-101131714D01*
X147962952Y-101084095D01*
X147915333Y-100988857D01*
X147915333Y-100750761D01*
X147962952Y-100655523D01*
X148010571Y-100607904D01*
X148105809Y-100560285D01*
X148343904Y-100560285D01*
X148439142Y-100607904D01*
X148486761Y-100655523D01*
X148534380Y-100750761D01*
X148534380Y-100988857D01*
X148486761Y-101084095D01*
X148439142Y-101131714D01*
%TO.C,R4*%
X144724380Y-72810666D02*
X144248190Y-73144000D01*
X144724380Y-73382095D02*
X143724380Y-73382095D01*
X143724380Y-73001142D01*
X143772000Y-72905904D01*
X143819619Y-72858285D01*
X143914857Y-72810666D01*
X144057714Y-72810666D01*
X144152952Y-72858285D01*
X144200571Y-72905904D01*
X144248190Y-73001142D01*
X144248190Y-73382095D01*
X144057714Y-71953523D02*
X144724380Y-71953523D01*
X143676761Y-72191619D02*
X144391047Y-72429714D01*
X144391047Y-71810666D01*
%TO.C,R3*%
X141676380Y-77191666D02*
X141200190Y-77525000D01*
X141676380Y-77763095D02*
X140676380Y-77763095D01*
X140676380Y-77382142D01*
X140724000Y-77286904D01*
X140771619Y-77239285D01*
X140866857Y-77191666D01*
X141009714Y-77191666D01*
X141104952Y-77239285D01*
X141152571Y-77286904D01*
X141200190Y-77382142D01*
X141200190Y-77763095D01*
X140676380Y-76858333D02*
X140676380Y-76239285D01*
X141057333Y-76572619D01*
X141057333Y-76429761D01*
X141104952Y-76334523D01*
X141152571Y-76286904D01*
X141247809Y-76239285D01*
X141485904Y-76239285D01*
X141581142Y-76286904D01*
X141628761Y-76334523D01*
X141676380Y-76429761D01*
X141676380Y-76715476D01*
X141628761Y-76810714D01*
X141581142Y-76858333D01*
%TO.C,R2*%
X136850380Y-77128666D02*
X136374190Y-77462000D01*
X136850380Y-77700095D02*
X135850380Y-77700095D01*
X135850380Y-77319142D01*
X135898000Y-77223904D01*
X135945619Y-77176285D01*
X136040857Y-77128666D01*
X136183714Y-77128666D01*
X136278952Y-77176285D01*
X136326571Y-77223904D01*
X136374190Y-77319142D01*
X136374190Y-77700095D01*
X135945619Y-76747714D02*
X135898000Y-76700095D01*
X135850380Y-76604857D01*
X135850380Y-76366761D01*
X135898000Y-76271523D01*
X135945619Y-76223904D01*
X136040857Y-76176285D01*
X136136095Y-76176285D01*
X136278952Y-76223904D01*
X136850380Y-76795333D01*
X136850380Y-76176285D01*
%TO.C,R1*%
X133294380Y-82970666D02*
X132818190Y-83304000D01*
X133294380Y-83542095D02*
X132294380Y-83542095D01*
X132294380Y-83161142D01*
X132342000Y-83065904D01*
X132389619Y-83018285D01*
X132484857Y-82970666D01*
X132627714Y-82970666D01*
X132722952Y-83018285D01*
X132770571Y-83065904D01*
X132818190Y-83161142D01*
X132818190Y-83542095D01*
X133294380Y-82018285D02*
X133294380Y-82589714D01*
X133294380Y-82304000D02*
X132294380Y-82304000D01*
X132437238Y-82399238D01*
X132532476Y-82494476D01*
X132580095Y-82589714D01*
%TO.C,JP1*%
X129722666Y-82256380D02*
X129722666Y-82970666D01*
X129675047Y-83113523D01*
X129579809Y-83208761D01*
X129436952Y-83256380D01*
X129341714Y-83256380D01*
X130198857Y-83256380D02*
X130198857Y-82256380D01*
X130579809Y-82256380D01*
X130675047Y-82304000D01*
X130722666Y-82351619D01*
X130770285Y-82446857D01*
X130770285Y-82589714D01*
X130722666Y-82684952D01*
X130675047Y-82732571D01*
X130579809Y-82780190D01*
X130198857Y-82780190D01*
X131722666Y-83256380D02*
X131151238Y-83256380D01*
X131436952Y-83256380D02*
X131436952Y-82256380D01*
X131341714Y-82399238D01*
X131246476Y-82494476D01*
X131151238Y-82542095D01*
%TO.C,J3*%
X138096666Y-89622380D02*
X138096666Y-90336666D01*
X138049047Y-90479523D01*
X137953809Y-90574761D01*
X137810952Y-90622380D01*
X137715714Y-90622380D01*
X138477619Y-89622380D02*
X139096666Y-89622380D01*
X138763333Y-90003333D01*
X138906190Y-90003333D01*
X139001428Y-90050952D01*
X139049047Y-90098571D01*
X139096666Y-90193809D01*
X139096666Y-90431904D01*
X139049047Y-90527142D01*
X139001428Y-90574761D01*
X138906190Y-90622380D01*
X138620476Y-90622380D01*
X138525238Y-90574761D01*
X138477619Y-90527142D01*
%TO.C,J1*%
X142922666Y-100544380D02*
X142922666Y-101258666D01*
X142875047Y-101401523D01*
X142779809Y-101496761D01*
X142636952Y-101544380D01*
X142541714Y-101544380D01*
X143922666Y-101544380D02*
X143351238Y-101544380D01*
X143636952Y-101544380D02*
X143636952Y-100544380D01*
X143541714Y-100687238D01*
X143446476Y-100782476D01*
X143351238Y-100830095D01*
%TO.C,D2*%
X146756380Y-102084095D02*
X145756380Y-102084095D01*
X145756380Y-101846000D01*
X145804000Y-101703142D01*
X145899238Y-101607904D01*
X145994476Y-101560285D01*
X146184952Y-101512666D01*
X146327809Y-101512666D01*
X146518285Y-101560285D01*
X146613523Y-101607904D01*
X146708761Y-101703142D01*
X146756380Y-101846000D01*
X146756380Y-102084095D01*
X145851619Y-101131714D02*
X145804000Y-101084095D01*
X145756380Y-100988857D01*
X145756380Y-100750761D01*
X145804000Y-100655523D01*
X145851619Y-100607904D01*
X145946857Y-100560285D01*
X146042095Y-100560285D01*
X146184952Y-100607904D01*
X146756380Y-101179333D01*
X146756380Y-100560285D01*
%TO.C,D1*%
X144724380Y-70334095D02*
X143724380Y-70334095D01*
X143724380Y-70096000D01*
X143772000Y-69953142D01*
X143867238Y-69857904D01*
X143962476Y-69810285D01*
X144152952Y-69762666D01*
X144295809Y-69762666D01*
X144486285Y-69810285D01*
X144581523Y-69857904D01*
X144676761Y-69953142D01*
X144724380Y-70096000D01*
X144724380Y-70334095D01*
X144724380Y-68810285D02*
X144724380Y-69381714D01*
X144724380Y-69096000D02*
X143724380Y-69096000D01*
X143867238Y-69191238D01*
X143962476Y-69286476D01*
X144010095Y-69381714D01*
%TO.C,C8*%
X140057142Y-77115666D02*
X140104761Y-77163285D01*
X140152380Y-77306142D01*
X140152380Y-77401380D01*
X140104761Y-77544238D01*
X140009523Y-77639476D01*
X139914285Y-77687095D01*
X139723809Y-77734714D01*
X139580952Y-77734714D01*
X139390476Y-77687095D01*
X139295238Y-77639476D01*
X139200000Y-77544238D01*
X139152380Y-77401380D01*
X139152380Y-77306142D01*
X139200000Y-77163285D01*
X139247619Y-77115666D01*
X139580952Y-76544238D02*
X139533333Y-76639476D01*
X139485714Y-76687095D01*
X139390476Y-76734714D01*
X139342857Y-76734714D01*
X139247619Y-76687095D01*
X139200000Y-76639476D01*
X139152380Y-76544238D01*
X139152380Y-76353761D01*
X139200000Y-76258523D01*
X139247619Y-76210904D01*
X139342857Y-76163285D01*
X139390476Y-76163285D01*
X139485714Y-76210904D01*
X139533333Y-76258523D01*
X139580952Y-76353761D01*
X139580952Y-76544238D01*
X139628571Y-76639476D01*
X139676190Y-76687095D01*
X139771428Y-76734714D01*
X139961904Y-76734714D01*
X140057142Y-76687095D01*
X140104761Y-76639476D01*
X140152380Y-76544238D01*
X140152380Y-76353761D01*
X140104761Y-76258523D01*
X140057142Y-76210904D01*
X139961904Y-76163285D01*
X139771428Y-76163285D01*
X139676190Y-76210904D01*
X139628571Y-76258523D01*
X139580952Y-76353761D01*
%TO.C,C7*%
X135231142Y-77128666D02*
X135278761Y-77176285D01*
X135326380Y-77319142D01*
X135326380Y-77414380D01*
X135278761Y-77557238D01*
X135183523Y-77652476D01*
X135088285Y-77700095D01*
X134897809Y-77747714D01*
X134754952Y-77747714D01*
X134564476Y-77700095D01*
X134469238Y-77652476D01*
X134374000Y-77557238D01*
X134326380Y-77414380D01*
X134326380Y-77319142D01*
X134374000Y-77176285D01*
X134421619Y-77128666D01*
X134326380Y-76795333D02*
X134326380Y-76128666D01*
X135326380Y-76557238D01*
%TO.C,C6*%
X143105142Y-77128666D02*
X143152761Y-77176285D01*
X143200380Y-77319142D01*
X143200380Y-77414380D01*
X143152761Y-77557238D01*
X143057523Y-77652476D01*
X142962285Y-77700095D01*
X142771809Y-77747714D01*
X142628952Y-77747714D01*
X142438476Y-77700095D01*
X142343238Y-77652476D01*
X142248000Y-77557238D01*
X142200380Y-77414380D01*
X142200380Y-77319142D01*
X142248000Y-77176285D01*
X142295619Y-77128666D01*
X142200380Y-76271523D02*
X142200380Y-76462000D01*
X142248000Y-76557238D01*
X142295619Y-76604857D01*
X142438476Y-76700095D01*
X142628952Y-76747714D01*
X143009904Y-76747714D01*
X143105142Y-76700095D01*
X143152761Y-76652476D01*
X143200380Y-76557238D01*
X143200380Y-76366761D01*
X143152761Y-76271523D01*
X143105142Y-76223904D01*
X143009904Y-76176285D01*
X142771809Y-76176285D01*
X142676571Y-76223904D01*
X142628952Y-76271523D01*
X142581333Y-76366761D01*
X142581333Y-76557238D01*
X142628952Y-76652476D01*
X142676571Y-76700095D01*
X142771809Y-76747714D01*
%TO.C,C5*%
X138279142Y-77128666D02*
X138326761Y-77176285D01*
X138374380Y-77319142D01*
X138374380Y-77414380D01*
X138326761Y-77557238D01*
X138231523Y-77652476D01*
X138136285Y-77700095D01*
X137945809Y-77747714D01*
X137802952Y-77747714D01*
X137612476Y-77700095D01*
X137517238Y-77652476D01*
X137422000Y-77557238D01*
X137374380Y-77414380D01*
X137374380Y-77319142D01*
X137422000Y-77176285D01*
X137469619Y-77128666D01*
X137374380Y-76223904D02*
X137374380Y-76700095D01*
X137850571Y-76747714D01*
X137802952Y-76700095D01*
X137755333Y-76604857D01*
X137755333Y-76366761D01*
X137802952Y-76271523D01*
X137850571Y-76223904D01*
X137945809Y-76176285D01*
X138183904Y-76176285D01*
X138279142Y-76223904D01*
X138326761Y-76271523D01*
X138374380Y-76366761D01*
X138374380Y-76604857D01*
X138326761Y-76700095D01*
X138279142Y-76747714D01*
%TO.C,C4*%
X147931142Y-70524666D02*
X147978761Y-70572285D01*
X148026380Y-70715142D01*
X148026380Y-70810380D01*
X147978761Y-70953238D01*
X147883523Y-71048476D01*
X147788285Y-71096095D01*
X147597809Y-71143714D01*
X147454952Y-71143714D01*
X147264476Y-71096095D01*
X147169238Y-71048476D01*
X147074000Y-70953238D01*
X147026380Y-70810380D01*
X147026380Y-70715142D01*
X147074000Y-70572285D01*
X147121619Y-70524666D01*
X147359714Y-69667523D02*
X148026380Y-69667523D01*
X146978761Y-69905619D02*
X147693047Y-70143714D01*
X147693047Y-69524666D01*
%TO.C,C3*%
X143851333Y-79605142D02*
X143803714Y-79652761D01*
X143660857Y-79700380D01*
X143565619Y-79700380D01*
X143422761Y-79652761D01*
X143327523Y-79557523D01*
X143279904Y-79462285D01*
X143232285Y-79271809D01*
X143232285Y-79128952D01*
X143279904Y-78938476D01*
X143327523Y-78843238D01*
X143422761Y-78748000D01*
X143565619Y-78700380D01*
X143660857Y-78700380D01*
X143803714Y-78748000D01*
X143851333Y-78795619D01*
X144184666Y-78700380D02*
X144803714Y-78700380D01*
X144470380Y-79081333D01*
X144613238Y-79081333D01*
X144708476Y-79128952D01*
X144756095Y-79176571D01*
X144803714Y-79271809D01*
X144803714Y-79509904D01*
X144756095Y-79605142D01*
X144708476Y-79652761D01*
X144613238Y-79700380D01*
X144327523Y-79700380D01*
X144232285Y-79652761D01*
X144184666Y-79605142D01*
%TO.C,C2*%
X133453142Y-77382666D02*
X133500761Y-77430285D01*
X133548380Y-77573142D01*
X133548380Y-77668380D01*
X133500761Y-77811238D01*
X133405523Y-77906476D01*
X133310285Y-77954095D01*
X133119809Y-78001714D01*
X132976952Y-78001714D01*
X132786476Y-77954095D01*
X132691238Y-77906476D01*
X132596000Y-77811238D01*
X132548380Y-77668380D01*
X132548380Y-77573142D01*
X132596000Y-77430285D01*
X132643619Y-77382666D01*
X132643619Y-77001714D02*
X132596000Y-76954095D01*
X132548380Y-76858857D01*
X132548380Y-76620761D01*
X132596000Y-76525523D01*
X132643619Y-76477904D01*
X132738857Y-76430285D01*
X132834095Y-76430285D01*
X132976952Y-76477904D01*
X133548380Y-77049333D01*
X133548380Y-76430285D01*
%TO.C,C1*%
X131929142Y-77382666D02*
X131976761Y-77430285D01*
X132024380Y-77573142D01*
X132024380Y-77668380D01*
X131976761Y-77811238D01*
X131881523Y-77906476D01*
X131786285Y-77954095D01*
X131595809Y-78001714D01*
X131452952Y-78001714D01*
X131262476Y-77954095D01*
X131167238Y-77906476D01*
X131072000Y-77811238D01*
X131024380Y-77668380D01*
X131024380Y-77573142D01*
X131072000Y-77430285D01*
X131119619Y-77382666D01*
X132024380Y-76430285D02*
X132024380Y-77001714D01*
X132024380Y-76716000D02*
X131024380Y-76716000D01*
X131167238Y-76811238D01*
X131262476Y-76906476D01*
X131310095Y-77001714D01*
%TD*%
M02*
