M48
; DRILL file {KiCad (5.1.10)-1} date 09/08/21 15:10:04
; FORMAT={-:-/ absolute / inch / decimal}
; #@! TF.CreationDate,2021-09-08T15:10:04+01:00
; #@! TF.GenerationSoftware,Kicad,Pcbnew,(5.1.10)-1
FMAT,2
INCH
T1C0.0157
T2C0.0197
T3C0.0394
T4C0.1260
T5C0.0354
%
G90
G05
T1
X5.12Y-3.11
X5.14Y-3.435
X5.23Y-3.45
X5.26Y-2.96
X5.28Y-3.92
X5.295Y-3.11
X5.295Y-3.5
X5.295Y-3.58
X5.31Y-2.695
X5.42Y-3.37
X5.42Y-3.47
X5.45Y-2.745
X5.455Y-2.83
X5.465Y-2.96
X5.475Y-2.79
X5.48Y-3.17
X5.48Y-3.37
X5.48Y-3.42
X5.5Y-2.8615
X5.5Y-3.0415
X5.56Y-3.125
X5.595Y-2.845
X5.615Y-3.22
X5.63Y-2.745
X5.65Y-2.79
X5.665Y-2.965
X5.845Y-3.12
X5.855Y-2.84
X5.88Y-3.855
T2
X4.9555Y-2.5
X4.9832Y-2.4332
X4.9832Y-2.5668
X5.05Y-2.4055
X5.05Y-2.5945
X5.1168Y-2.4332
X5.1168Y-2.5668
X5.1445Y-2.5
X5.7555Y-2.5
X5.7832Y-2.4332
X5.7832Y-2.5668
X5.85Y-2.4055
X5.85Y-2.5945
X5.9168Y-2.4332
X5.9168Y-2.5668
X5.9445Y-2.5
T3
X5.01Y-3.14
X5.01Y-3.2384
X5.01Y-3.3369
X5.35Y-3.65
X5.35Y-3.75
X5.45Y-3.65
X5.45Y-3.75
X5.55Y-3.65
X5.55Y-3.75
T4
X5.05Y-2.5
X5.85Y-2.5
T5
X5.3634Y-2.5
X5.5366Y-2.5
T0
M30
